FontsManager.addFont({"glyphs":{"S":{"x_min":74,"x_max":937,"ha":987,"o":"m 937 317 q 810 75 937 168 q 467 -18 684 -18 q 248 4 341 -18 q 74 59 155 26 l 74 302 l 102 302 q 283 203 183 237 q 475 169 383 169 q 537 173 498 169 q 600 186 576 177 q 649 216 630 198 q 669 270 669 235 q 640 328 669 304 q 558 365 612 352 q 438 390 501 378 q 319 420 374 402 q 135 532 191 461 q 80 708 80 603 q 206 938 80 849 q 531 1028 332 1028 q 728 1008 631 1028 q 897 960 825 989 l 897 728 l 869 728 q 719 809 808 776 q 539 842 631 842 q 474 837 506 842 q 412 821 442 833 q 366 790 385 810 q 348 743 348 769 q 378 681 348 703 q 493 642 409 660 q 600 620 549 631 q 710 590 651 609 q 881 487 826 552 q 937 317 937 421 "},"/":{"x_min":83,"x_max":829,"ha":958,"o":"m 829 1055 l 291 -220 l 83 -220 l 618 1055 l 829 1055 "},"ђ":{"x_min":28,"x_max":882,"ha":990,"o":"m 360 540 l 360 0 l 115 0 l 115 839 l 28 839 l 28 979 l 115 979 l 115 1055 l 360 1055 l 360 979 l 581 979 l 581 839 l 360 839 l 360 677 q 485 755 424 728 q 618 783 546 783 q 722 767 674 783 q 805 715 770 751 q 859 626 839 681 q 879 495 879 571 q 880 423 879 463 q 882 333 882 384 q 881 258 882 298 q 879 165 880 218 q 847 -39 876 43 q 767 -175 817 -123 q 655 -253 715 -230 q 524 -277 594 -277 q 452 -276 485 -277 q 390 -274 419 -276 l 390 -97 l 416 -97 q 515 -88 474 -97 q 580 -49 556 -80 q 619 45 607 -16 q 633 211 630 107 q 634 263 634 235 q 635 323 635 292 q 635 366 635 339 q 633 427 635 393 q 628 487 632 459 q 611 539 624 516 q 572 573 597 560 q 502 586 546 586 q 433 574 469 586 q 360 540 397 563 "},"y":{"x_min":20,"x_max":884,"ha":904,"o":"m 459 269 l 633 762 l 884 762 l 460 -279 l 196 -279 l 316 4 l 20 762 l 276 762 l 459 269 "},"≈":{"x_min":107,"x_max":1098,"ha":1205,"o":"m 1098 826 q 1012 560 1085 648 q 792 473 939 473 q 665 504 727 473 q 558 574 604 536 q 468 635 506 617 q 403 653 430 653 q 325 615 352 653 q 290 483 298 577 l 107 483 q 192 744 119 659 q 412 829 266 829 q 514 807 460 829 q 646 727 569 786 q 746 662 715 676 q 801 649 777 649 q 884 696 858 649 q 915 826 909 744 l 1098 826 m 1098 398 q 1012 135 1085 220 q 792 51 939 51 q 665 82 727 51 q 558 152 604 114 q 468 213 506 195 q 403 231 430 231 q 325 190 352 231 q 290 54 298 149 l 107 54 q 192 318 119 230 q 412 407 266 407 q 514 385 460 407 q 646 305 569 364 q 746 240 714 254 q 801 227 777 227 q 884 271 858 227 q 915 398 909 316 l 1098 398 "},"‗":{"x_min":-11,"x_max":999,"ha":988,"o":"m 999 -137 l -11 -137 l -11 -56 l 999 -56 l 999 -137 m 999 -286 l -11 -286 l -11 -205 l 999 -205 l 999 -286 "},"g":{"x_min":61,"x_max":856,"ha":971,"o":"m 856 88 q 825 -92 856 -18 q 739 -206 794 -165 q 607 -267 684 -248 q 431 -286 529 -286 q 275 -276 352 -286 q 142 -253 198 -267 l 142 -63 l 171 -63 q 280 -95 216 -80 q 396 -110 345 -110 q 506 -97 463 -110 q 571 -61 548 -84 q 601 -6 592 -40 q 611 74 611 27 l 611 89 q 513 32 566 53 q 394 11 459 11 q 147 107 234 11 q 61 400 61 203 q 87 563 61 494 q 161 682 113 631 q 271 756 206 730 q 405 783 337 783 q 517 768 467 783 q 609 728 568 753 l 618 762 l 856 762 l 856 88 m 611 240 l 611 585 q 559 599 590 594 q 504 605 529 605 q 360 549 408 605 q 313 395 313 494 q 353 241 313 284 q 475 198 394 198 q 546 209 511 198 q 611 240 581 221 "},"е":{"x_min":60,"x_max":865,"ha":922,"o":"m 865 336 l 307 336 q 375 199 312 246 q 559 152 437 152 q 709 179 636 152 q 823 239 781 207 l 851 239 l 851 43 q 695 -5 768 9 q 533 -20 621 -20 q 182 83 304 -20 q 60 376 60 186 q 175 675 60 565 q 492 786 291 786 q 771 691 677 786 q 865 421 865 597 l 865 336 m 622 479 q 584 594 619 555 q 472 633 548 633 q 357 596 402 633 q 306 479 311 559 l 622 479 "},"–":{"x_min":104,"x_max":884,"ha":988,"o":"m 884 358 l 104 358 l 104 540 l 884 540 l 884 358 "},"б":{"x_min":78,"x_max":908,"ha":968,"o":"m 807 640 q 880 531 853 597 q 908 370 908 465 q 795 83 908 191 q 492 -24 683 -24 q 180 104 282 -24 q 78 488 78 232 q 83 587 78 531 q 106 710 89 643 q 148 830 123 776 q 217 926 172 884 q 360 1009 273 981 q 554 1046 446 1036 q 715 1056 621 1052 q 853 1062 808 1060 l 853 881 q 771 877 808 878 q 683 872 733 875 q 603 866 648 869 q 517 855 558 862 q 439 831 475 848 q 379 786 402 814 q 350 730 362 766 q 333 645 338 694 q 446 703 386 682 q 577 725 506 725 q 702 704 643 725 q 807 640 761 684 m 602 188 q 640 253 626 215 q 655 362 655 292 q 608 495 655 445 q 486 545 562 545 q 412 537 448 545 q 330 506 376 530 q 330 487 330 500 q 330 464 330 474 q 337 316 330 371 q 367 220 345 262 q 419 165 386 184 q 495 146 452 146 q 550 155 521 146 q 602 188 580 165 "},"e":{"x_min":60,"x_max":865,"ha":922,"o":"m 865 336 l 307 336 q 375 199 312 246 q 559 152 437 152 q 709 179 636 152 q 823 239 781 207 l 851 239 l 851 43 q 695 -5 768 9 q 533 -20 621 -20 q 182 83 304 -20 q 60 376 60 186 q 175 675 60 565 q 492 786 291 786 q 771 691 677 786 q 865 421 865 597 l 865 336 m 622 479 q 584 594 619 555 q 472 633 548 633 q 357 596 402 633 q 306 479 311 559 l 622 479 "},"у":{"x_min":20,"x_max":884,"ha":904,"o":"m 459 269 l 633 762 l 884 762 l 460 -279 l 196 -279 l 316 4 l 20 762 l 276 762 l 459 269 "},"J":{"x_min":28,"x_max":655,"ha":771,"o":"m 655 296 q 631 171 655 229 q 560 73 607 113 q 441 7 511 30 q 268 -16 371 -16 q 136 -10 198 -16 q 28 3 74 -5 l 28 208 l 52 208 q 120 185 85 195 q 210 175 155 175 q 320 194 282 175 q 375 246 358 213 q 392 319 390 280 q 395 421 395 359 l 395 824 l 163 824 l 163 1010 l 655 1010 l 655 296 "},"Ј":{"x_min":28,"x_max":655,"ha":771,"o":"m 655 296 q 631 171 655 229 q 560 73 607 113 q 441 7 511 30 q 268 -16 371 -16 q 136 -10 198 -16 q 28 3 74 -5 l 28 208 l 52 208 q 120 185 85 195 q 210 175 155 175 q 320 194 282 175 q 375 246 358 213 q 392 319 390 280 q 395 421 395 359 l 395 824 l 163 824 l 163 1010 l 655 1010 l 655 296 "},"∆":{"x_min":23,"x_max":1096,"ha":1119,"o":"m 1096 0 l 23 0 l 409 1010 l 709 1010 l 1096 0 m 760 194 l 555 751 l 351 194 l 760 194 "},"‾":{"x_min":-11,"x_max":999,"ha":988,"o":"m 999 1103 l -11 1103 l -11 1247 l 999 1247 l 999 1103 "},"Ѓ":{"x_min":129,"x_max":857,"ha":885,"o":"m 857 815 l 389 815 l 389 0 l 129 0 l 129 1010 l 857 1010 l 857 815 m 760 1390 l 760 1376 l 521 1123 l 354 1123 l 521 1390 l 760 1390 "},"≥":{"x_min":148,"x_max":1057,"ha":1205,"o":"m 1057 529 l 148 236 l 148 430 l 784 620 l 148 813 l 148 1008 l 1057 714 l 1057 529 m 1057 0 l 148 0 l 148 182 l 1057 182 l 1057 0 "},"ў":{"x_min":20,"x_max":884,"ha":904,"o":"m 459 269 l 633 762 l 884 762 l 460 -279 l 196 -279 l 316 4 l 20 762 l 276 762 l 459 269 m 761 1100 q 685 919 761 989 q 461 850 609 850 q 237 920 313 850 q 161 1100 161 990 l 350 1100 q 375 999 351 1032 q 461 967 400 967 q 546 999 522 967 q 572 1100 570 1031 l 761 1100 "},"^":{"x_min":134,"x_max":1072,"ha":1205,"o":"m 1072 435 l 854 435 l 591 820 l 349 434 l 134 434 l 507 1010 l 675 1010 l 1072 435 "},"ґ":{"x_min":115,"x_max":731,"ha":738,"o":"m 360 592 l 360 0 l 115 0 l 115 762 l 523 762 l 523 1008 l 731 1008 l 731 592 l 360 592 "},"D":{"x_min":129,"x_max":1083,"ha":1153,"o":"m 1083 503 q 1018 251 1083 362 q 855 80 954 139 q 693 17 781 35 q 484 0 605 0 l 129 0 l 129 1010 l 495 1010 q 708 989 618 1010 q 858 930 797 968 q 1022 758 962 866 q 1083 503 1083 650 m 814 505 q 777 676 814 605 q 662 787 741 747 q 580 813 622 806 q 454 821 539 821 l 389 821 l 389 189 l 454 189 q 591 197 547 189 q 676 228 634 205 q 780 337 747 269 q 814 505 814 405 "},"∙":{"x_min":124,"x_max":378,"ha":502,"o":"m 378 315 l 124 315 l 124 582 l 378 582 l 378 315 "},"к":{"x_min":115,"x_max":924,"ha":932,"o":"m 924 0 l 641 0 l 436 302 l 360 302 l 360 0 l 115 0 l 115 762 l 360 762 l 360 456 q 453 470 427 456 q 513 543 479 484 q 537 589 523 561 q 559 631 551 616 q 646 729 597 697 q 785 762 696 762 q 840 761 811 762 q 879 760 868 760 l 879 557 l 812 557 q 748 536 772 557 q 706 476 724 516 q 679 424 691 443 q 647 391 667 405 l 924 0 "},"ц":{"x_min":115,"x_max":962,"ha":1013,"o":"m 745 0 l 115 0 l 115 762 l 360 762 l 360 168 l 639 168 l 639 762 l 884 762 l 884 168 l 962 168 l 962 -189 l 745 -189 l 745 0 "},"Л":{"x_min":12,"x_max":1045,"ha":1174,"o":"m 1045 0 l 785 0 l 785 815 l 496 815 q 490 710 492 748 q 484 610 488 672 q 457 379 475 472 q 417 225 439 286 q 368 126 394 164 q 316 62 342 87 q 233 12 283 31 q 128 -7 184 -7 q 58 -4 94 -7 q 12 0 22 -1 l 12 226 l 21 226 q 35 224 27 225 q 53 224 43 224 q 109 228 91 224 q 142 245 128 233 q 213 389 193 291 q 242 666 232 488 q 248 819 246 736 q 253 1010 250 902 l 1045 1010 l 1045 0 "},"w":{"x_min":31,"x_max":1330,"ha":1361,"o":"m 1330 762 l 1094 0 l 835 0 l 679 513 l 527 0 l 264 0 l 31 762 l 287 762 l 417 236 l 580 762 l 796 762 l 950 236 l 1078 762 l 1330 762 "},"$":{"x_min":91,"x_max":909,"ha":988,"o":"m 909 290 q 812 93 909 176 q 557 1 716 11 l 557 -245 l 439 -245 l 439 -3 q 263 15 362 -2 q 107 59 163 32 l 107 257 l 137 257 q 281 203 200 223 q 442 177 362 183 l 442 362 l 376 377 q 261 410 314 391 q 171 460 209 429 q 112 537 133 492 q 91 650 91 583 q 183 823 91 751 q 439 910 275 895 l 439 1069 l 557 1069 l 557 912 q 703 894 619 909 q 835 859 786 879 l 835 664 l 805 664 q 693 710 757 692 q 557 734 629 729 l 557 561 l 611 550 q 836 459 764 520 q 909 290 909 399 m 449 576 l 449 734 q 369 711 405 730 q 334 656 334 691 q 357 606 334 624 q 449 576 380 589 m 663 264 q 626 322 663 303 q 554 347 590 342 l 554 179 q 631 205 599 185 q 663 264 663 225 "},"∫":{"x_min":21,"x_max":728,"ha":747,"o":"m 728 876 l 709 876 q 667 886 693 880 q 611 893 641 893 q 524 866 552 893 q 497 754 497 840 l 497 13 q 422 -208 497 -130 q 197 -286 347 -286 q 104 -282 152 -286 q 21 -272 56 -279 l 21 -100 l 39 -100 q 82 -110 54 -104 q 137 -117 109 -117 q 227 -88 202 -117 q 252 21 252 -60 l 252 762 q 326 985 252 908 q 551 1062 401 1062 q 649 1058 605 1062 q 728 1048 694 1054 l 728 876 "},"\\":{"x_min":128,"x_max":874,"ha":958,"o":"m 874 -220 l 665 -220 l 128 1055 l 338 1055 l 874 -220 "},"о":{"x_min":60,"x_max":894,"ha":954,"o":"m 894 380 q 784 84 894 192 q 477 -24 674 -24 q 169 84 279 -24 q 60 380 60 192 q 170 678 60 570 q 477 786 280 786 q 785 677 676 786 q 894 380 894 568 m 593 194 q 629 265 617 224 q 641 379 641 306 q 628 492 641 446 q 594 564 616 537 q 542 604 573 592 q 477 616 512 616 q 414 606 441 616 q 361 568 386 596 q 326 495 339 541 q 313 379 313 449 q 324 270 313 316 q 358 197 336 224 q 410 158 380 170 q 479 146 440 146 q 542 157 512 146 q 593 194 572 168 "},"Д":{"x_min":28,"x_max":1121,"ha":1169,"o":"m 1121 -232 l 882 -232 l 882 3 l 267 3 l 267 -232 l 28 -232 l 28 196 l 105 196 q 225 567 183 360 q 267 1010 267 774 l 1021 1010 l 1021 196 l 1121 196 l 1121 -232 m 761 196 l 761 815 l 508 815 q 454 473 495 630 q 355 196 413 317 l 761 196 "},"’":{"x_min":83,"x_max":439,"ha":461,"o":"m 439 1055 l 241 656 l 83 656 l 189 1055 l 439 1055 "},"ъ":{"x_min":7,"x_max":986,"ha":1032,"o":"m 735 255 q 705 328 735 304 q 621 353 676 353 l 489 353 l 489 154 l 621 154 q 681 164 658 154 q 715 190 704 175 q 730 221 726 205 q 735 255 735 238 m 986 257 q 962 149 986 198 q 902 68 939 99 q 807 15 856 31 q 674 0 758 0 l 246 0 l 246 597 l 7 597 l 7 762 l 489 762 l 489 508 l 675 508 q 808 496 757 508 q 903 450 858 484 q 965 368 944 419 q 986 257 986 317 "},"-":{"x_min":75,"x_max":592,"ha":667,"o":"m 592 352 l 75 352 l 75 547 l 592 547 l 592 352 "},"ѕ":{"x_min":64,"x_max":777,"ha":824,"o":"m 777 241 q 671 51 777 123 q 381 -21 565 -21 q 196 -1 279 -21 q 64 40 114 17 l 64 241 l 86 241 q 128 212 104 228 q 196 179 152 197 q 282 153 234 164 q 386 142 331 142 q 492 157 457 142 q 527 204 527 173 q 506 245 527 232 q 429 269 486 257 q 355 282 402 275 q 271 299 309 289 q 117 384 167 327 q 67 527 67 441 q 171 710 67 637 q 455 783 275 783 q 619 765 541 783 q 742 728 697 748 l 742 536 l 720 536 q 597 596 666 573 q 456 620 527 620 q 357 603 397 620 q 317 557 317 587 q 335 516 317 530 q 421 487 353 502 q 501 473 458 480 q 588 455 544 466 q 730 376 684 430 q 777 241 777 322 "},"Q":{"x_min":70,"x_max":1111,"ha":1181,"o":"m 765 249 q 821 357 803 295 q 840 505 840 420 q 819 659 840 596 q 764 762 798 723 q 684 821 729 803 q 590 840 639 840 q 497 822 541 840 q 417 764 454 804 q 362 659 383 726 q 341 504 341 592 q 361 351 341 414 q 416 247 382 287 q 495 188 450 207 q 590 170 540 170 q 686 189 640 170 q 765 249 731 208 m 793 12 q 829 -84 795 -55 q 946 -114 863 -114 q 1012 -104 973 -114 q 1065 -88 1050 -95 l 1091 -88 l 1091 -265 q 1008 -281 1052 -274 q 872 -288 963 -288 q 731 -267 791 -288 q 631 -211 671 -247 q 572 -126 591 -175 q 549 -18 552 -77 q 196 133 322 -5 q 70 504 70 272 q 208 889 70 748 q 590 1031 346 1031 q 971 889 832 1031 q 1111 504 1111 748 q 1029 194 1111 325 q 793 12 948 64 "},"Ш":{"x_min":129,"x_max":1487,"ha":1616,"o":"m 1487 0 l 129 0 l 129 1010 l 389 1010 l 389 192 l 678 192 l 678 1010 l 938 1010 l 938 192 l 1227 192 l 1227 1010 l 1487 1010 l 1487 0 "},"M":{"x_min":129,"x_max":1187,"ha":1316,"o":"m 1187 0 l 928 0 l 928 676 l 741 237 l 561 237 l 375 676 l 375 0 l 129 0 l 129 1010 l 431 1010 l 658 503 l 884 1010 l 1187 1010 l 1187 0 "},"ј":{"x_min":-39,"x_max":445,"ha":560,"o":"m 445 -12 q 365 -213 445 -141 q 161 -286 286 -286 q 40 -280 95 -286 q -39 -268 -13 -274 l -39 -94 l -20 -94 q 30 -105 0 -100 q 78 -110 60 -110 q 174 -67 148 -110 q 200 70 200 -25 l 200 597 l 56 597 l 56 762 l 445 762 l 445 -12 m 445 870 l 184 870 l 184 1055 l 445 1055 l 445 870 "},"C":{"x_min":70,"x_max":943,"ha":1005,"o":"m 585 -20 q 377 13 472 -20 q 213 112 282 46 q 107 276 145 178 q 70 503 70 375 q 105 721 70 624 q 210 889 141 819 q 373 993 276 956 q 586 1030 470 1030 q 701 1022 649 1030 q 795 1004 752 1015 q 878 975 841 991 q 943 945 915 959 l 943 701 l 913 701 q 865 739 894 717 q 799 783 836 761 q 719 820 762 805 q 626 835 675 835 q 522 817 571 835 q 430 760 472 800 q 365 657 390 721 q 341 503 341 594 q 367 344 341 408 q 435 244 394 280 q 527 190 476 206 q 627 175 578 175 q 721 189 675 175 q 807 227 768 203 q 869 269 840 247 q 915 308 897 291 l 943 308 l 943 66 q 870 34 905 49 q 797 9 835 19 q 704 -12 748 -5 q 585 -20 661 -20 "},"!":{"x_min":137,"x_max":421,"ha":559,"o":"m 421 1010 l 389 291 l 168 291 l 137 1010 l 421 1010 m 416 0 l 142 0 l 142 179 l 416 179 l 416 0 "},"―":{"x_min":138,"x_max":1251,"ha":1389,"o":"m 1251 358 l 138 358 l 138 540 l 1251 540 l 1251 358 "},"Й":{"x_min":129,"x_max":1050,"ha":1175,"o":"m 1050 0 l 796 0 l 796 672 l 377 0 l 129 0 l 129 1010 l 383 1010 l 383 401 l 772 1010 l 1050 1010 l 1050 0 m 954 1343 q 858 1144 953 1216 q 590 1073 763 1073 q 322 1144 417 1073 q 227 1343 227 1216 l 455 1343 q 486 1235 456 1268 q 590 1203 515 1203 q 694 1236 665 1203 q 726 1343 724 1269 l 954 1343 "},"{":{"x_min":103,"x_max":851,"ha":988,"o":"m 851 -266 l 665 -266 q 455 -199 533 -266 q 377 -3 377 -132 l 377 96 q 323 263 377 216 q 150 311 269 311 l 103 311 l 103 478 l 150 478 q 323 525 269 478 q 377 692 377 572 l 377 792 q 455 988 377 921 q 665 1055 533 1055 l 851 1055 l 851 903 l 773 903 q 700 896 733 903 q 645 873 667 890 q 610 822 622 856 q 599 736 599 789 l 599 662 q 545 503 599 567 q 394 402 492 439 l 394 386 q 545 285 492 349 q 599 126 599 221 l 599 52 q 610 -33 599 0 q 645 -84 622 -67 q 699 -108 666 -102 q 773 -114 733 -114 l 851 -114 l 851 -266 "},"X":{"x_min":16,"x_max":1045,"ha":1061,"o":"m 1045 0 l 743 0 l 525 332 l 303 0 l 16 0 l 374 508 l 23 1010 l 323 1010 l 534 694 l 751 1010 l 1040 1010 l 686 518 l 1045 0 "},"#":{"x_min":101,"x_max":1102,"ha":1205,"o":"m 1102 613 l 887 613 l 834 403 l 1026 403 l 1026 240 l 793 240 l 732 0 l 568 0 l 628 240 l 449 240 l 388 0 l 223 0 l 283 240 l 101 240 l 101 403 l 324 403 l 376 613 l 178 613 l 178 776 l 417 776 l 476 1010 l 641 1010 l 583 776 l 762 776 l 821 1010 l 988 1010 l 928 776 l 1102 776 l 1102 613 m 724 614 l 542 614 l 488 400 l 671 400 l 724 614 "},"Б":{"x_min":129,"x_max":991,"ha":1053,"o":"m 991 324 q 962 188 991 250 q 885 86 934 126 q 757 18 824 37 q 595 0 690 0 l 129 0 l 129 1010 l 914 1010 l 914 815 l 388 815 l 388 634 l 599 634 q 772 618 705 634 q 891 562 839 603 q 967 459 943 522 q 991 324 991 397 m 722 317 q 716 364 722 342 q 692 405 711 387 q 642 435 674 424 q 553 446 610 446 l 388 446 l 388 189 l 553 189 q 631 199 596 189 q 683 227 665 210 q 712 266 702 243 q 722 317 722 289 "},"г":{"x_min":115,"x_max":731,"ha":738,"o":"m 731 592 l 360 592 l 360 0 l 115 0 l 115 762 l 731 762 l 731 592 "},"Џ":{"x_min":129,"x_max":1034,"ha":1163,"o":"m 462 0 l 129 0 l 129 1010 l 389 1010 l 389 194 l 774 194 l 774 1010 l 1034 1010 l 1034 0 l 701 0 l 701 -239 l 462 -239 l 462 0 "},")":{"x_min":113,"x_max":624,"ha":755,"o":"m 624 388 q 561 34 624 196 q 368 -279 498 -126 l 113 -279 l 113 -259 q 218 -146 167 -211 q 310 0 270 -81 q 377 177 352 83 q 402 388 402 272 q 376 597 402 499 q 310 776 351 695 q 217 923 267 860 q 113 1035 167 985 l 113 1055 l 368 1055 q 561 741 498 902 q 624 388 624 579 "},"э":{"x_min":59,"x_max":782,"ha":842,"o":"m 651 693 q 746 573 711 646 q 782 392 782 500 q 747 210 782 289 q 651 81 712 131 q 506 5 590 30 q 319 -20 422 -20 q 182 -4 244 -20 q 59 35 119 10 l 59 229 l 92 229 q 122 204 103 219 q 171 174 141 189 q 237 150 201 160 q 329 141 274 141 q 483 188 427 141 q 547 315 538 236 l 198 315 l 198 470 l 543 470 q 474 584 530 546 q 342 622 418 622 q 260 612 296 622 q 193 589 224 603 q 140 558 163 575 q 104 532 117 541 l 71 532 l 71 725 q 209 768 137 753 q 346 783 281 783 q 515 760 438 783 q 651 693 592 738 "},"х":{"x_min":18,"x_max":911,"ha":929,"o":"m 911 0 l 626 0 l 463 228 l 296 0 l 18 0 l 318 380 l 23 762 l 307 762 l 467 538 l 628 762 l 908 762 l 611 386 l 911 0 "},"}":{"x_min":136,"x_max":884,"ha":988,"o":"m 884 311 l 836 311 q 663 263 717 311 q 610 96 610 216 l 610 -3 q 531 -199 610 -132 q 321 -266 453 -266 l 136 -266 l 136 -114 l 213 -114 q 286 -107 253 -114 q 341 -84 319 -101 q 376 -33 364 -67 q 388 52 388 0 l 388 126 q 441 285 388 221 q 592 386 494 349 l 592 402 q 441 503 494 439 q 388 662 388 567 l 388 736 q 376 822 388 789 q 341 873 364 856 q 286 896 319 890 q 213 903 253 903 l 136 903 l 136 1055 l 321 1055 q 531 988 453 1055 q 610 792 610 921 l 610 692 q 663 525 610 572 q 836 478 717 478 l 884 478 l 884 311 "},"‰":{"x_min":97,"x_max":2371,"ha":2469,"o":"m 711 702 q 633 452 711 533 q 406 371 555 371 q 174 453 252 371 q 97 700 97 535 q 176 948 97 867 q 406 1030 255 1030 q 634 948 557 1030 q 711 702 711 867 m 1241 1010 l 711 0 l 529 0 l 1058 1010 l 1241 1010 m 1670 310 q 1592 60 1670 141 q 1365 -21 1514 -21 q 1133 61 1211 -21 q 1056 308 1056 143 q 1135 556 1056 475 q 1365 638 1214 638 q 1593 556 1516 638 q 1670 310 1670 475 m 511 701 q 485 847 511 809 q 404 886 460 886 q 322 847 347 886 q 297 700 297 809 q 322 553 297 591 q 404 515 347 515 q 485 553 460 515 q 511 701 511 591 m 1470 309 q 1444 455 1470 417 q 1363 494 1419 494 q 1281 455 1306 494 q 1256 308 1256 417 q 1281 161 1256 199 q 1363 123 1306 123 q 1444 161 1419 123 q 1470 309 1470 199 m 2371 310 q 2293 60 2371 141 q 2066 -21 2215 -21 q 1834 61 1912 -21 q 1757 308 1757 143 q 1836 556 1757 475 q 2066 638 1915 638 q 2294 556 2217 638 q 2371 310 2371 475 m 2171 309 q 2145 455 2171 417 q 2064 494 2120 494 q 1982 455 2007 494 q 1957 308 1957 417 q 1982 161 1957 199 q 2064 123 2007 123 q 2145 161 2120 123 q 2171 309 2171 199 "},"ш":{"x_min":115,"x_max":1276,"ha":1392,"o":"m 1276 0 l 115 0 l 115 762 l 358 762 l 358 168 l 574 168 l 574 762 l 817 762 l 817 168 l 1033 168 l 1033 762 l 1276 762 l 1276 0 "},"Я":{"x_min":12,"x_max":975,"ha":1104,"o":"m 975 0 l 716 0 l 716 370 l 574 370 l 320 0 l 12 0 l 313 418 q 169 529 221 457 q 118 718 118 601 q 152 853 118 795 q 239 947 186 910 q 351 994 285 979 q 503 1010 417 1010 l 975 1010 l 975 0 m 716 552 l 716 824 l 587 824 q 496 820 528 824 q 434 794 464 816 q 399 749 411 777 q 387 689 387 722 q 399 626 387 654 q 435 581 412 599 q 496 556 461 561 q 588 552 531 552 l 716 552 "},"Ч":{"x_min":89,"x_max":964,"ha":1093,"o":"m 964 0 l 704 0 l 704 374 q 570 349 626 357 q 423 341 514 341 q 292 357 352 341 q 187 411 232 374 q 115 504 141 448 q 89 637 89 560 l 89 1010 l 351 1010 l 351 770 q 356 671 351 711 q 384 599 361 630 q 447 553 406 569 q 563 538 488 538 q 633 541 590 538 q 704 549 676 544 l 704 1010 l 964 1010 l 964 0 "},"a":{"x_min":58,"x_max":819,"ha":928,"o":"m 577 199 l 577 357 q 469 345 527 352 q 381 329 411 338 q 325 295 344 317 q 306 238 306 273 q 310 199 306 214 q 330 171 314 184 q 367 151 346 157 q 436 145 389 145 q 510 159 472 145 q 577 199 548 174 m 577 80 q 528 44 557 65 q 473 11 498 23 q 398 -12 437 -4 q 313 -20 359 -20 q 131 47 204 -20 q 58 218 58 114 q 95 354 58 301 q 201 437 132 407 q 369 481 269 468 q 578 500 470 493 l 578 504 q 526 590 578 566 q 374 615 474 615 q 245 593 313 615 q 146 561 176 572 l 124 561 l 124 744 q 250 769 162 755 q 424 783 337 783 q 726 718 633 783 q 819 517 819 654 l 819 0 l 577 0 l 577 80 "},"—":{"x_min":104,"x_max":1285,"ha":1389,"o":"m 1285 358 l 104 358 l 104 540 l 1285 540 l 1285 358 "},"=":{"x_min":169,"x_max":1036,"ha":1205,"o":"m 1036 536 l 169 536 l 169 718 l 1036 718 l 1036 536 m 1036 179 l 169 179 l 169 361 l 1036 361 l 1036 179 "},"N":{"x_min":129,"x_max":1047,"ha":1176,"o":"m 1047 0 l 795 0 l 368 693 l 368 0 l 129 0 l 129 1010 l 440 1010 l 808 431 l 808 1010 l 1047 1010 l 1047 0 "},"Ћ":{"x_min":28,"x_max":1211,"ha":1300,"o":"m 596 0 l 336 0 l 336 815 l 28 815 l 28 1010 l 911 1010 l 911 815 l 596 815 l 596 608 q 730 631 650 620 q 876 642 810 642 q 1007 625 948 642 q 1113 570 1066 608 q 1184 479 1158 535 q 1211 345 1211 423 l 1211 0 l 949 0 l 949 212 q 943 309 949 268 q 915 383 937 351 q 851 429 893 413 q 736 445 808 445 q 669 441 701 445 q 596 432 636 438 l 596 0 "},"⁄":{"x_min":-52,"x_max":663,"ha":610,"o":"m 663 1016 l 130 0 l -52 0 l 480 1016 l 663 1016 "},"д":{"x_min":25,"x_max":909,"ha":960,"o":"m 909 -189 l 692 -189 l 692 3 l 242 3 l 242 -189 l 25 -189 l 25 171 l 88 171 q 170 432 139 278 q 201 762 201 587 l 831 762 l 831 171 l 909 171 l 909 -189 m 588 171 l 588 592 l 420 592 q 381 358 408 466 q 315 171 353 251 l 588 171 "},"2":{"x_min":125,"x_max":919,"ha":988,"o":"m 919 0 l 125 0 l 125 166 q 307 306 215 232 q 453 434 398 380 q 570 572 535 513 q 605 689 605 631 q 560 796 605 758 q 432 834 515 834 q 300 808 369 834 q 172 742 231 782 l 151 742 l 151 966 q 293 1008 199 987 q 481 1030 387 1030 q 772 950 672 1030 q 872 724 872 870 q 824 542 872 628 q 677 364 776 456 q 553 259 615 307 q 464 193 491 212 l 919 193 l 919 0 "},"М":{"x_min":129,"x_max":1187,"ha":1316,"o":"m 1187 0 l 928 0 l 928 676 l 741 237 l 561 237 l 375 676 l 375 0 l 129 0 l 129 1010 l 431 1010 l 658 503 l 884 1010 l 1187 1010 l 1187 0 "},"Z":{"x_min":61,"x_max":909,"ha":961,"o":"m 909 0 l 61 0 l 61 189 l 564 815 l 85 815 l 85 1010 l 882 1010 l 882 818 l 379 195 l 909 195 l 909 0 "},"ь":{"x_min":115,"x_max":856,"ha":902,"o":"m 605 255 q 575 328 605 304 q 491 353 546 353 l 358 353 l 358 154 l 491 154 q 551 164 528 154 q 585 190 574 175 q 600 221 596 205 q 605 255 605 238 m 856 257 q 832 149 856 198 q 772 68 809 99 q 677 15 726 31 q 544 0 628 0 l 115 0 l 115 762 l 358 762 l 358 508 l 544 508 q 677 496 627 508 q 773 450 728 484 q 835 368 814 419 q 856 257 856 317 "},"u":{"x_min":109,"x_max":875,"ha":990,"o":"m 875 0 l 630 0 l 630 84 q 505 5 562 32 q 371 -21 449 -21 q 177 51 245 -21 q 109 266 109 124 l 109 762 l 354 762 l 354 383 q 357 287 354 326 q 375 224 361 249 q 414 187 387 199 q 487 176 440 176 q 556 187 518 176 q 630 221 594 199 l 630 762 l 875 762 l 875 0 "},"k":{"x_min":115,"x_max":924,"ha":932,"o":"m 924 0 l 640 0 l 426 332 l 360 250 l 360 0 l 115 0 l 115 1055 l 360 1055 l 360 426 l 621 762 l 904 762 l 630 433 l 924 0 "},"З":{"x_min":53,"x_max":907,"ha":981,"o":"m 907 301 q 876 168 907 228 q 787 66 846 107 q 638 2 724 24 q 428 -20 552 -20 q 225 -2 319 -20 q 53 45 131 15 l 53 274 l 77 274 q 134 242 96 263 q 211 208 172 222 q 302 179 260 190 q 398 169 343 169 q 496 177 452 169 q 570 205 540 186 q 619 251 603 224 q 636 318 636 277 q 624 382 636 358 q 587 422 612 407 q 524 442 562 437 q 435 448 486 448 l 250 448 l 250 628 l 429 628 q 516 635 480 628 q 572 657 553 643 q 601 694 593 674 q 609 743 609 713 q 558 817 609 794 q 420 841 507 841 q 323 830 368 841 q 238 806 278 820 q 167 777 194 791 q 112 751 141 764 l 87 751 l 87 963 q 256 1009 156 988 q 464 1030 356 1030 q 775 965 671 1030 q 880 785 880 900 q 824 636 880 698 q 679 552 768 573 l 679 542 q 756 521 715 536 q 829 478 796 506 q 885 407 863 449 q 907 301 907 366 "},"Ў":{"x_min":7,"x_max":1018,"ha":1023,"o":"m 1018 1010 l 650 201 q 577 89 618 132 q 491 26 535 46 q 404 0 447 5 q 318 -7 361 -7 q 206 -4 271 -7 q 120 0 141 -2 l 120 220 l 135 220 q 185 211 149 215 q 256 207 221 207 q 365 220 323 207 q 416 256 406 234 l 7 1010 l 290 1010 l 539 533 l 745 1010 l 1018 1010 m 881 1343 q 785 1144 880 1216 q 517 1073 690 1073 q 249 1144 344 1073 q 154 1343 154 1216 l 382 1343 q 413 1235 383 1268 q 517 1203 442 1203 q 621 1236 592 1203 q 653 1343 651 1269 l 881 1343 "},"€":{"x_min":0,"x_max":928,"ha":988,"o":"m 0 358 l 32 449 l 72 449 q 70 476 71 462 q 70 504 70 490 q 70 536 70 520 q 72 568 71 552 l 0 568 l 32 659 l 86 659 q 252 930 125 831 q 575 1030 379 1030 q 766 1008 685 1030 q 928 945 846 986 l 928 701 l 898 701 q 769 797 838 759 q 615 835 699 835 q 462 787 530 835 q 364 659 394 740 l 565 659 l 532 568 l 344 568 q 342 536 343 553 q 341 503 341 520 q 341 475 341 489 q 343 449 342 461 l 488 449 l 455 358 l 362 358 q 456 225 389 275 q 616 175 523 175 q 774 212 700 175 q 900 308 848 249 l 928 308 l 928 66 q 752 0 828 18 q 574 -20 677 -20 q 248 79 375 -20 q 84 358 121 179 l 0 358 "},"в":{"x_min":115,"x_max":879,"ha":941,"o":"m 879 230 q 856 132 879 175 q 798 61 834 89 q 700 12 752 25 q 579 0 649 0 l 115 0 l 115 762 l 559 762 q 682 756 643 762 q 759 730 721 751 q 819 672 799 708 q 840 586 840 636 q 807 488 840 530 q 729 423 775 445 l 729 415 q 835 353 792 400 q 879 230 879 306 m 594 532 q 568 592 594 574 q 486 610 542 610 l 357 610 l 357 458 l 490 458 q 567 478 540 458 q 594 532 594 498 m 627 237 q 598 307 627 287 q 515 327 570 327 l 357 327 l 357 153 l 519 153 q 598 175 570 153 q 627 237 627 198 "},"С":{"x_min":70,"x_max":943,"ha":1005,"o":"m 585 -20 q 377 13 472 -20 q 213 112 282 46 q 107 276 145 178 q 70 503 70 375 q 105 721 70 624 q 210 889 141 819 q 373 993 276 956 q 586 1030 470 1030 q 701 1022 649 1030 q 795 1004 752 1015 q 878 975 841 991 q 943 945 915 959 l 943 701 l 913 701 q 865 739 894 717 q 799 783 836 761 q 719 820 762 805 q 626 835 675 835 q 522 817 571 835 q 430 760 472 800 q 365 657 390 721 q 341 503 341 594 q 367 344 341 408 q 435 244 394 280 q 527 190 476 206 q 627 175 578 175 q 721 189 675 175 q 807 227 768 203 q 869 269 840 247 q 915 308 897 291 l 943 308 l 943 66 q 870 34 905 49 q 797 9 835 19 q 704 -12 748 -5 q 585 -20 661 -20 "},"Ω":{"x_min":36,"x_max":1136,"ha":1172,"o":"m 1136 0 l 650 0 l 650 331 q 718 373 691 356 q 770 426 744 391 q 807 495 794 458 q 820 595 820 532 q 805 690 820 645 q 763 768 791 735 q 689 821 734 802 q 586 840 644 840 q 481 820 524 840 q 408 768 438 801 q 365 689 379 735 q 352 595 352 644 q 365 495 352 536 q 401 425 378 455 q 457 373 424 396 q 522 331 490 349 l 522 0 l 36 0 l 36 195 l 358 195 l 358 238 q 251 292 301 260 q 163 372 201 325 q 103 480 125 417 q 81 622 81 543 q 115 782 81 709 q 215 912 149 855 q 374 999 279 967 q 586 1031 469 1031 q 800 1000 708 1031 q 958 913 893 969 q 1056 784 1022 859 q 1091 622 1091 710 q 1068 481 1091 545 q 1008 373 1045 417 q 921 293 970 326 q 814 238 873 261 l 814 195 l 1136 195 l 1136 0 "},"њ":{"x_min":115,"x_max":1370,"ha":1416,"o":"m 1119 255 q 1089 328 1119 304 q 1005 353 1060 353 l 872 353 l 872 154 l 1005 154 q 1065 164 1042 154 q 1099 190 1088 175 q 1114 221 1110 205 q 1119 255 1119 238 m 1370 257 q 1346 149 1370 198 q 1286 68 1323 99 q 1191 15 1240 31 q 1058 0 1142 0 l 629 0 l 629 349 l 360 349 l 360 0 l 115 0 l 115 762 l 360 762 l 360 505 l 629 505 l 629 762 l 872 762 l 872 508 l 1058 508 q 1191 496 1141 508 q 1287 450 1242 484 q 1349 368 1328 419 q 1370 257 1370 317 "},"s":{"x_min":64,"x_max":777,"ha":824,"o":"m 777 241 q 671 51 777 123 q 381 -21 565 -21 q 196 -1 279 -21 q 64 40 114 17 l 64 241 l 86 241 q 128 212 104 228 q 196 179 152 197 q 282 153 234 164 q 386 142 331 142 q 492 157 457 142 q 527 204 527 173 q 506 245 527 232 q 429 269 486 257 q 355 282 402 275 q 271 299 309 289 q 117 384 167 327 q 67 527 67 441 q 171 710 67 637 q 455 783 275 783 q 619 765 541 783 q 742 728 697 748 l 742 536 l 720 536 q 597 596 666 573 q 456 620 527 620 q 357 603 397 620 q 317 557 317 587 q 335 516 317 530 q 421 487 353 502 q 501 473 458 480 q 588 455 544 466 q 730 376 684 430 q 777 241 777 322 "},"B":{"x_min":129,"x_max":993,"ha":1058,"o":"m 993 309 q 963 178 993 236 q 882 82 934 120 q 751 18 822 37 q 569 0 679 0 l 129 0 l 129 1010 l 521 1010 q 699 1001 643 1010 q 812 965 756 993 q 897 887 869 936 q 926 775 926 838 q 887 646 926 702 q 778 558 848 590 l 778 553 q 935 472 877 533 q 993 309 993 410 m 659 724 q 646 774 659 749 q 602 812 633 799 q 531 823 573 822 q 412 825 488 825 l 388 825 l 388 611 l 428 611 q 533 613 490 611 q 602 626 577 615 q 648 667 637 642 q 659 724 659 691 m 722 313 q 703 387 722 361 q 640 426 684 413 q 556 436 609 435 q 444 437 502 437 l 388 437 l 388 185 l 406 185 q 563 185 516 185 q 651 203 611 186 q 706 248 691 220 q 722 313 722 276 "},"…":{"x_min":124,"x_max":1333,"ha":1457,"o":"m 361 0 l 124 0 l 124 267 l 361 267 l 361 0 m 847 0 l 610 0 l 610 267 l 847 267 l 847 0 m 1333 0 l 1096 0 l 1096 267 l 1333 267 l 1333 0 "},"В":{"x_min":129,"x_max":993,"ha":1058,"o":"m 993 309 q 963 178 993 236 q 882 82 934 120 q 751 18 822 37 q 569 0 679 0 l 129 0 l 129 1010 l 521 1010 q 699 1001 643 1010 q 812 965 756 993 q 897 887 869 936 q 926 775 926 838 q 887 646 926 702 q 778 558 848 590 l 778 553 q 935 472 877 533 q 993 309 993 410 m 659 724 q 646 774 659 749 q 602 812 633 799 q 531 823 573 822 q 412 825 488 825 l 388 825 l 388 611 l 428 611 q 533 613 490 611 q 602 626 577 615 q 648 667 637 642 q 659 724 659 691 m 722 313 q 703 387 722 361 q 640 426 684 413 q 556 436 609 435 q 444 437 502 437 l 388 437 l 388 185 l 406 185 q 563 185 516 185 q 651 203 611 186 q 706 248 691 220 q 722 313 722 276 "},"І":{"x_min":84,"x_max":674,"ha":758,"o":"m 674 0 l 84 0 l 84 179 l 249 179 l 249 831 l 84 831 l 84 1010 l 674 1010 l 674 831 l 509 831 l 509 179 l 674 179 l 674 0 "},"?":{"x_min":100,"x_max":781,"ha":857,"o":"m 781 763 q 761 642 781 694 q 704 550 741 589 q 616 481 667 512 q 501 425 565 450 l 501 271 l 262 271 l 262 499 q 349 526 310 512 q 430 570 387 539 q 493 633 470 597 q 516 715 516 669 q 472 812 516 783 q 349 841 428 841 q 239 820 300 841 q 127 766 177 799 l 100 766 l 100 972 q 233 1011 143 991 q 416 1031 323 1031 q 682 956 584 1031 q 781 763 781 882 m 520 0 l 246 0 l 246 179 l 520 179 l 520 0 "},"H":{"x_min":129,"x_max":1034,"ha":1163,"o":"m 1034 0 l 774 0 l 774 445 l 389 445 l 389 0 l 129 0 l 129 1010 l 389 1010 l 389 640 l 774 640 l 774 1010 l 1034 1010 l 1034 0 "},"c":{"x_min":60,"x_max":771,"ha":817,"o":"m 512 -20 q 330 3 412 -20 q 186 76 247 27 q 93 201 126 126 q 60 378 60 277 q 95 561 60 484 q 194 690 131 639 q 337 760 256 738 q 504 783 417 783 q 648 766 582 783 q 771 722 714 749 l 771 514 l 736 514 q 702 542 722 526 q 653 574 682 558 q 592 599 625 589 q 515 609 559 609 q 365 546 417 609 q 313 378 313 484 q 366 211 313 268 q 519 154 420 154 q 602 164 565 154 q 663 189 639 175 q 704 217 686 202 q 736 247 721 232 l 771 247 l 771 38 q 650 -4 713 11 q 512 -20 588 -20 "},"−":{"x_min":160,"x_max":1044,"ha":1205,"o":"m 1044 358 l 160 358 l 160 540 l 1044 540 l 1044 358 "},"≠":{"x_min":170,"x_max":1036,"ha":1205,"o":"m 1036 183 l 583 183 l 481 -59 l 298 -59 l 399 183 l 170 183 l 170 365 l 475 365 l 547 533 l 170 533 l 170 715 l 621 715 l 714 936 l 900 936 l 807 715 l 1036 715 l 1036 533 l 730 533 l 657 365 l 1036 365 l 1036 183 "},"‼":{"x_min":137,"x_max":839,"ha":977,"o":"m 421 1010 l 389 291 l 168 291 l 137 1010 l 421 1010 m 416 0 l 142 0 l 142 179 l 416 179 l 416 0 m 839 1010 l 807 291 l 586 291 l 555 1010 l 839 1010 m 834 0 l 560 0 l 560 179 l 834 179 l 834 0 "},"•":{"x_min":150,"x_max":838,"ha":988,"o":"m 150 463 q 250 705 150 605 q 494 806 351 806 q 737 705 636 806 q 838 463 838 605 q 737 220 838 320 q 494 120 636 120 q 250 220 351 120 q 150 463 150 320 "},"н":{"x_min":115,"x_max":885,"ha":1000,"o":"m 885 0 l 640 0 l 640 325 l 360 325 l 360 0 l 115 0 l 115 762 l 360 762 l 360 499 l 640 499 l 640 762 l 885 762 l 885 0 "},"(":{"x_min":131,"x_max":642,"ha":755,"o":"m 642 -279 l 386 -279 q 193 34 256 -126 q 131 388 131 196 q 193 741 131 579 q 386 1055 256 902 l 642 1055 l 642 1035 q 537 923 587 985 q 444 776 487 860 q 378 597 403 695 q 353 388 353 499 q 377 177 353 272 q 444 0 402 83 q 536 -145 485 -80 q 642 -259 587 -211 l 642 -279 "},"U":{"x_min":115,"x_max":1013,"ha":1128,"o":"m 1013 365 q 899 78 1013 178 q 563 -21 785 -21 q 228 78 342 -21 q 115 364 115 178 l 115 1010 l 377 1010 l 377 380 q 420 223 377 275 q 563 172 464 172 q 706 221 661 172 q 751 380 751 270 l 751 1010 l 1013 1010 l 1013 365 "},"F":{"x_min":129,"x_max":852,"ha":903,"o":"m 852 815 l 388 815 l 388 627 l 818 627 l 818 432 l 388 432 l 388 0 l 129 0 l 129 1010 l 852 1010 l 852 815 "},"м":{"x_min":115,"x_max":1038,"ha":1153,"o":"m 1038 0 l 800 0 l 800 473 l 626 161 l 519 161 l 346 473 l 346 0 l 115 0 l 115 762 l 379 762 l 576 416 l 772 762 l 1038 762 l 1038 0 "},"з":{"x_min":44,"x_max":755,"ha":817,"o":"m 755 215 q 723 103 755 150 q 636 29 691 57 q 514 -9 581 2 q 371 -21 447 -21 q 194 -4 271 -21 q 44 37 117 12 l 44 223 l 71 223 q 191 171 124 193 q 327 149 257 149 q 388 152 352 149 q 445 163 424 155 q 488 188 473 174 q 503 234 503 203 q 489 279 503 263 q 453 303 476 295 q 403 311 433 309 q 326 314 373 314 l 210 314 l 210 469 l 303 469 q 368 469 330 469 q 428 475 406 470 q 474 499 460 483 q 488 541 488 515 q 473 577 488 562 q 436 599 459 591 q 390 609 416 606 q 334 613 363 613 q 222 596 286 613 q 108 554 158 579 l 82 554 l 82 736 q 207 766 124 749 q 377 783 290 783 q 515 771 453 783 q 626 736 578 759 q 708 671 677 711 q 740 571 740 631 q 698 462 740 510 q 598 398 656 414 l 598 392 q 710 330 665 374 q 755 215 755 287 "},":":{"x_min":153,"x_max":407,"ha":559,"o":"m 407 495 l 153 495 l 153 762 l 407 762 l 407 495 m 407 0 l 153 0 l 153 267 l 407 267 l 407 0 "},"Ґ":{"x_min":129,"x_max":857,"ha":885,"o":"m 389 815 l 389 0 l 129 0 l 129 1010 l 626 1010 l 626 1288 l 857 1288 l 857 815 l 389 815 "},"і":{"x_min":108,"x_max":367,"ha":475,"o":"m 360 0 l 115 0 l 115 762 l 360 762 l 360 0 m 367 870 l 108 870 l 108 1055 l 367 1055 l 367 870 "},"*":{"x_min":138.328125,"x_max":849.671875,"ha":988,"o":"m 849 566 l 774 454 l 557 602 l 564 362 l 420 362 l 425 596 l 212 454 l 138 566 l 379 708 l 139 851 l 212 965 l 424 820 l 420 1055 l 564 1055 l 558 819 l 773 962 l 849 850 l 606 709 l 849 566 "},"†":{"x_min":165,"x_max":823,"ha":988,"o":"m 823 636 l 576 639 l 580 92 l 408 92 l 411 639 l 165 636 l 165 792 l 411 788 l 408 1055 l 580 1055 l 576 788 l 823 792 l 823 636 "},"Ќ":{"x_min":129,"x_max":1071,"ha":1071,"o":"m 1071 0 l 752 0 l 453 407 l 389 407 l 389 0 l 129 0 l 129 1010 l 389 1010 l 389 598 q 441 604 420 599 q 480 622 463 609 q 520 662 499 636 q 564 728 541 689 q 596 787 578 753 q 626 842 614 820 q 736 972 678 933 q 911 1012 794 1012 q 972 1010 945 1012 q 1013 1009 1000 1009 l 1013 791 l 937 791 q 850 762 881 791 q 782 661 819 733 q 721 561 745 590 q 675 520 697 532 l 1071 0 m 801 1390 l 801 1376 l 562 1123 l 395 1123 l 562 1390 l 801 1390 "},"∕":{"x_min":-52,"x_max":663,"ha":610,"o":"m 663 1016 l 130 0 l -52 0 l 480 1016 l 663 1016 "},"₫":{"x_min":61,"x_max":943,"ha":971,"o":"m 856 0 l 611 0 l 611 79 q 493 3 548 27 q 366 -21 438 -21 q 144 86 227 -21 q 61 375 61 193 q 89 547 61 472 q 165 675 117 622 q 277 754 212 726 q 409 783 343 783 q 521 768 477 783 q 611 731 564 753 l 611 839 l 390 839 l 390 979 l 611 979 l 611 1055 l 856 1055 l 856 979 l 943 979 l 943 839 l 856 839 l 856 0 m 611 209 l 611 584 q 556 600 585 595 q 504 605 528 605 q 360 544 408 605 q 313 377 313 484 q 351 214 313 265 q 475 164 390 164 q 545 176 508 164 q 611 209 582 189 m 822 -286 l 157 -286 l 157 -146 l 822 -146 l 822 -286 "},"V":{"x_min":16,"x_max":1045,"ha":1061,"o":"m 1045 1010 l 676 0 l 384 0 l 16 1010 l 289 1010 l 534 299 l 778 1010 l 1045 1010 "},"У":{"x_min":7,"x_max":1018,"ha":1023,"o":"m 1018 1010 l 650 201 q 577 89 618 132 q 491 26 535 46 q 404 0 447 5 q 318 -7 361 -7 q 206 -4 271 -7 q 120 0 141 -2 l 120 220 l 135 220 q 185 211 149 215 q 256 207 221 207 q 365 220 323 207 q 416 256 406 234 l 7 1010 l 290 1010 l 539 533 l 745 1010 l 1018 1010 "},"0":{"x_min":76,"x_max":912,"ha":988,"o":"m 912 505 q 888 277 912 378 q 817 112 865 176 q 688 12 766 46 q 494 -21 609 -21 q 300 12 380 -21 q 171 113 220 46 q 98 278 120 179 q 76 505 76 377 q 99 733 76 636 q 172 897 122 830 q 302 997 222 964 q 494 1031 382 1031 q 688 996 610 1031 q 817 894 767 962 q 889 730 867 828 q 912 505 912 633 m 650 505 q 613 766 650 688 q 494 844 577 844 q 374 766 410 844 q 338 504 338 688 q 374 245 338 324 q 494 166 411 166 q 613 245 576 166 q 650 505 650 324 "},"”":{"x_min":83,"x_max":808,"ha":816,"o":"m 439 1055 l 241 656 l 83 656 l 189 1055 l 439 1055 m 808 1055 l 610 656 l 452 656 l 558 1055 l 808 1055 "},"@":{"x_min":98,"x_max":1240,"ha":1339,"o":"m 1077 869 q 1196 687 1153 793 q 1240 449 1240 581 q 1212 256 1240 354 q 1145 94 1185 158 l 801 94 l 790 146 q 716 106 752 121 q 612 91 680 91 q 433 182 502 91 q 365 428 365 273 q 388 573 365 511 q 451 681 411 635 q 541 749 488 725 q 646 774 594 774 q 725 757 691 774 q 779 722 760 741 l 779 765 l 937 765 l 937 210 l 1051 210 q 1088 326 1076 263 q 1100 446 1100 389 q 1068 648 1100 561 q 980 791 1036 734 q 845 878 922 849 q 677 907 767 907 q 514 873 591 907 q 377 781 436 839 q 279 633 317 722 q 242 439 242 544 q 277 235 242 323 q 372 87 313 146 q 508 -1 431 29 q 673 -32 586 -32 q 804 -21 731 -32 q 935 6 878 -10 l 935 -125 q 809 -147 871 -140 q 673 -155 747 -155 q 443 -112 549 -155 q 260 9 338 -69 q 141 197 184 87 q 98 439 98 308 q 142 672 98 565 q 266 860 187 780 q 449 984 342 939 q 676 1030 556 1030 q 899 987 796 1030 q 1077 869 1003 945 m 776 274 l 776 616 q 724 637 748 631 q 670 644 700 644 q 570 586 605 644 q 535 430 535 529 q 564 271 535 323 q 660 220 593 220 q 722 233 695 220 q 776 274 748 247 "},"℅":{"x_min":98,"x_max":1670,"ha":1767,"o":"m 643 419 q 544 382 592 394 q 442 371 496 371 q 189 456 280 371 q 98 698 98 542 q 188 941 98 852 q 438 1030 279 1030 q 543 1017 491 1030 q 643 979 594 1004 l 643 812 l 611 812 q 534 870 573 851 q 452 889 496 889 q 342 837 381 889 q 304 698 304 786 q 345 557 304 603 q 454 512 386 512 q 545 532 507 512 q 611 588 583 553 l 643 588 l 643 419 m 1232 1010 l 702 0 l 520 0 l 1049 1010 l 1232 1010 m 1670 310 q 1592 60 1670 141 q 1365 -21 1514 -21 q 1133 61 1211 -21 q 1056 308 1056 143 q 1135 556 1056 475 q 1365 638 1214 638 q 1593 556 1516 638 q 1670 310 1670 475 m 1470 309 q 1444 455 1470 417 q 1363 494 1419 494 q 1281 455 1306 494 q 1256 308 1256 417 q 1281 161 1256 199 q 1363 123 1306 123 q 1444 161 1419 123 q 1470 309 1470 199 "},"i":{"x_min":108,"x_max":367,"ha":475,"o":"m 360 0 l 115 0 l 115 762 l 360 762 l 360 0 m 367 870 l 108 870 l 108 1055 l 367 1055 l 367 870 "},"ќ":{"x_min":115,"x_max":924,"ha":932,"o":"m 924 0 l 641 0 l 436 302 l 360 302 l 360 0 l 115 0 l 115 762 l 360 762 l 360 456 q 453 470 427 456 q 513 543 479 484 q 537 589 523 561 q 559 631 551 616 q 646 729 597 697 q 785 762 696 762 q 840 761 811 762 q 879 760 868 760 l 879 557 l 812 557 q 748 536 772 557 q 706 476 724 516 q 679 424 691 443 q 647 391 667 405 l 924 0 m 758 1137 l 758 1123 l 519 870 l 352 870 l 519 1137 l 758 1137 "},"≤":{"x_min":148,"x_max":1057,"ha":1205,"o":"m 1057 236 l 148 529 l 148 714 l 1057 1008 l 1057 813 l 420 620 l 1057 430 l 1057 236 m 1057 0 l 148 0 l 148 182 l 1057 182 l 1057 0 "},"ё":{"x_min":60,"x_max":865,"ha":922,"o":"m 865 336 l 307 336 q 375 199 312 246 q 559 152 437 152 q 709 179 636 152 q 823 239 781 207 l 851 239 l 851 43 q 695 -5 768 9 q 533 -20 621 -20 q 182 83 304 -20 q 60 376 60 186 q 175 675 60 565 q 492 786 291 786 q 771 691 677 786 q 865 421 865 597 l 865 336 m 622 479 q 584 594 619 555 q 472 633 548 633 q 357 596 402 633 q 306 479 311 559 l 622 479 m 761 870 l 560 870 l 560 1055 l 761 1055 l 761 870 m 397 870 l 196 870 l 196 1055 l 397 1055 l 397 870 "},"№":{"x_min":129,"x_max":1712,"ha":1797,"o":"m 947 0 l 709 0 l 361 690 l 361 0 l 129 0 l 129 1010 l 433 1010 l 715 444 l 715 1010 l 947 1010 l 947 0 m 1712 707 q 1625 470 1712 557 q 1383 384 1539 384 q 1141 470 1227 384 q 1055 707 1055 557 q 1141 944 1055 858 q 1383 1031 1228 1031 q 1626 944 1540 1031 q 1712 707 1712 857 m 1512 705 q 1480 848 1512 801 q 1383 895 1449 895 q 1286 848 1317 895 q 1255 705 1255 801 q 1286 564 1255 609 q 1384 520 1318 520 q 1480 564 1448 520 q 1512 705 1512 609 m 1145 263 l 1622 263 l 1622 119 l 1145 119 l 1145 263 "},"]":{"x_min":134,"x_max":587,"ha":755,"o":"m 587 -266 l 134 -266 l 134 -103 l 375 -103 l 375 892 l 134 892 l 134 1055 l 587 1055 l 587 -266 "},"А":{"x_min":16,"x_max":1062,"ha":1078,"o":"m 1062 0 l 792 0 l 722 204 l 347 204 l 278 0 l 16 0 l 389 1010 l 688 1010 l 1062 0 m 659 389 l 535 750 l 411 389 l 659 389 "},"m":{"x_min":115,"x_max":1360,"ha":1470,"o":"m 860 540 l 860 0 l 615 0 l 615 380 q 612 475 615 436 q 597 539 609 514 q 560 574 585 563 q 490 586 535 586 q 421 571 454 586 q 360 540 387 556 l 360 0 l 115 0 l 115 762 l 360 762 l 360 677 q 480 755 423 727 q 607 783 538 783 q 740 749 683 783 q 830 650 798 715 q 973 747 904 712 q 1108 783 1042 783 q 1295 709 1231 783 q 1360 495 1360 635 l 1360 0 l 1115 0 l 1115 380 q 1112 476 1115 437 q 1098 539 1110 514 q 1061 574 1086 563 q 990 586 1036 586 q 931 575 960 586 q 860 540 902 564 "},"′":{"x_min":79,"x_max":479,"ha":490,"o":"m 479 1010 l 240 577 l 79 577 l 230 1010 l 479 1010 "},"Ы":{"x_min":129,"x_max":1347,"ha":1476,"o":"m 722 317 q 716 364 722 342 q 692 405 711 387 q 642 435 674 424 q 553 446 610 446 l 389 446 l 389 189 l 553 189 q 631 199 596 189 q 683 227 665 210 q 712 266 702 243 q 722 317 722 289 m 991 324 q 962 188 991 250 q 885 86 934 126 q 757 18 824 37 q 595 0 690 0 l 129 0 l 129 1010 l 389 1010 l 389 634 l 598 634 q 771 618 704 634 q 891 562 839 603 q 967 459 943 522 q 991 324 991 397 m 1347 0 l 1087 0 l 1087 1010 l 1347 1010 l 1347 0 "},"Е":{"x_min":129,"x_max":859,"ha":949,"o":"m 859 0 l 129 0 l 129 1010 l 859 1010 l 859 815 l 388 815 l 388 640 l 825 640 l 825 445 l 388 445 l 388 195 l 859 195 l 859 0 "},"8":{"x_min":67,"x_max":921,"ha":988,"o":"m 921 282 q 806 62 921 147 q 492 -23 692 -23 q 300 0 380 -23 q 168 63 220 23 q 91 157 116 103 q 67 272 67 210 q 111 407 67 348 q 265 510 155 466 l 265 514 q 135 616 176 554 q 94 759 94 678 q 205 956 94 879 q 495 1033 316 1033 q 788 963 682 1033 q 895 777 895 893 q 850 649 895 706 q 713 554 805 593 l 713 550 q 870 442 819 510 q 921 282 921 374 m 641 748 q 601 830 641 800 q 495 861 561 861 q 445 854 470 861 q 398 837 419 848 q 365 807 378 825 q 353 764 353 788 q 375 702 353 724 q 450 657 398 680 q 502 637 469 649 q 581 611 535 626 q 627 676 613 647 q 641 748 641 705 m 662 270 q 637 344 662 319 q 536 402 613 369 q 471 427 514 412 q 399 453 428 442 q 346 389 370 426 q 323 304 323 351 q 373 192 323 234 q 506 151 424 151 q 557 157 527 151 q 607 177 586 163 q 647 214 632 193 q 662 270 662 235 "},"Э":{"x_min":62,"x_max":960,"ha":1030,"o":"m 819 893 q 923 734 887 827 q 960 519 960 640 q 919 286 960 389 q 810 117 879 182 q 642 15 740 51 q 423 -20 544 -20 q 303 -11 359 -20 q 204 9 248 -3 q 119 36 157 22 q 62 58 81 49 l 62 287 l 87 287 q 136 249 107 269 q 200 211 165 228 q 288 178 241 191 q 399 165 335 165 q 497 177 445 165 q 589 219 548 190 q 662 301 632 250 q 702 431 693 352 l 252 431 l 252 624 l 695 624 q 657 726 685 685 q 590 794 629 768 q 506 833 552 821 q 415 845 460 845 q 311 831 358 845 q 221 798 263 818 q 153 757 183 779 q 104 721 124 735 l 76 721 l 76 951 q 145 979 113 967 q 229 1004 178 991 q 327 1022 271 1015 q 442 1030 383 1030 q 654 995 559 1030 q 819 893 750 960 "},"R":{"x_min":129,"x_max":1102,"ha":1087,"o":"m 696 700 q 680 765 696 738 q 626 808 664 792 q 564 821 600 819 q 482 824 529 824 l 388 824 l 388 552 l 468 552 q 572 558 530 552 q 643 585 615 564 q 683 632 670 606 q 696 700 696 657 m 1102 0 l 783 0 l 508 370 l 388 370 l 388 0 l 129 0 l 129 1010 l 566 1010 q 720 999 655 1010 q 840 955 784 989 q 931 867 897 921 q 965 732 965 813 q 913 549 965 620 q 764 432 861 479 l 1102 0 "},"ю":{"x_min":115,"x_max":1321,"ha":1381,"o":"m 508 327 l 360 327 l 360 0 l 115 0 l 115 762 l 360 762 l 360 497 l 517 497 q 647 709 546 633 q 910 786 747 786 q 1213 677 1105 786 q 1321 380 1321 568 q 1212 84 1321 192 q 910 -24 1104 -24 q 629 66 735 -24 q 508 327 522 156 m 1021 194 q 1056 265 1044 224 q 1068 379 1068 306 q 1056 492 1068 446 q 1023 564 1044 538 q 973 604 1002 592 q 908 616 943 616 q 846 606 874 616 q 795 568 819 596 q 760 494 773 541 q 748 379 748 446 q 760 267 748 311 q 792 197 772 222 q 841 158 812 171 q 910 146 871 146 q 971 157 941 146 q 1021 194 1001 168 "},"o":{"x_min":60,"x_max":894,"ha":954,"o":"m 894 380 q 784 84 894 192 q 477 -24 674 -24 q 169 84 279 -24 q 60 380 60 192 q 170 678 60 570 q 477 786 280 786 q 785 677 676 786 q 894 380 894 568 m 593 194 q 629 265 617 224 q 641 379 641 306 q 628 492 641 446 q 594 564 616 537 q 542 604 573 592 q 477 616 512 616 q 414 606 441 616 q 361 568 386 596 q 326 495 339 541 q 313 379 313 449 q 324 270 313 316 q 358 197 336 224 q 410 158 380 170 q 479 146 440 146 q 542 157 512 146 q 593 194 572 168 "},"5":{"x_min":111,"x_max":897,"ha":988,"o":"m 897 341 q 867 195 897 263 q 781 80 837 128 q 638 3 719 28 q 453 -21 556 -21 q 247 -1 331 -20 q 111 40 163 16 l 111 263 l 139 263 q 272 202 201 226 q 414 178 343 178 q 507 187 457 178 q 586 223 556 197 q 621 265 609 244 q 633 332 633 287 q 617 393 633 368 q 575 434 601 418 q 487 463 539 456 q 394 471 436 471 q 276 460 332 471 q 178 440 220 450 l 149 440 l 149 1010 l 868 1010 l 868 817 l 394 817 l 394 651 q 447 653 415 652 q 503 655 479 655 q 652 639 587 655 q 765 594 718 623 q 862 496 827 557 q 897 341 897 434 "},"Ѕ":{"x_min":74,"x_max":937,"ha":987,"o":"m 937 317 q 810 75 937 168 q 467 -18 684 -18 q 248 4 341 -18 q 74 59 155 26 l 74 302 l 102 302 q 283 203 183 237 q 475 169 383 169 q 537 173 498 169 q 600 186 576 177 q 649 216 630 198 q 669 270 669 235 q 640 328 669 304 q 558 365 612 352 q 438 390 501 378 q 319 420 374 402 q 135 532 191 461 q 80 708 80 603 q 206 938 80 849 q 531 1028 332 1028 q 728 1008 631 1028 q 897 960 825 989 l 897 728 l 869 728 q 719 809 808 776 q 539 842 631 842 q 474 837 506 842 q 412 821 442 833 q 366 790 385 810 q 348 743 348 769 q 378 681 348 703 q 493 642 409 660 q 600 620 549 631 q 710 590 651 609 q 881 487 826 552 q 937 317 937 421 "},"п":{"x_min":115,"x_max":885,"ha":1000,"o":"m 885 0 l 640 0 l 640 597 l 360 597 l 360 0 l 115 0 l 115 762 l 885 762 l 885 0 "},"7":{"x_min":106,"x_max":898,"ha":988,"o":"m 898 809 l 440 0 l 150 0 l 625 817 l 106 817 l 106 1010 l 898 1010 l 898 809 "},"K":{"x_min":129,"x_max":1072,"ha":1071,"o":"m 1072 0 l 752 0 l 450 403 l 389 330 l 389 0 l 129 0 l 129 1010 l 389 1010 l 389 552 l 749 1010 l 1052 1010 l 657 542 l 1072 0 "},",":{"x_min":24,"x_max":419,"ha":502,"o":"m 419 267 l 175 -250 l 24 -250 l 157 267 l 419 267 "},"d":{"x_min":61,"x_max":856,"ha":971,"o":"m 856 0 l 611 0 l 611 79 q 493 3 548 27 q 366 -21 438 -21 q 144 86 227 -21 q 61 375 61 193 q 89 547 61 472 q 165 675 117 622 q 277 754 212 726 q 409 783 343 783 q 521 768 477 783 q 611 731 564 753 l 611 1055 l 856 1055 l 856 0 m 611 209 l 611 584 q 556 600 585 595 q 504 605 528 605 q 360 544 408 605 q 313 377 313 484 q 351 214 313 265 q 475 164 390 164 q 545 176 508 164 q 611 209 582 189 "},"E":{"x_min":129,"x_max":859,"ha":949,"o":"m 859 0 l 129 0 l 129 1010 l 859 1010 l 859 815 l 388 815 l 388 640 l 825 640 l 825 445 l 388 445 l 388 195 l 859 195 l 859 0 "},"Y":{"x_min":6,"x_max":1016,"ha":1023,"o":"m 1016 1010 l 644 390 l 644 0 l 384 0 l 384 378 l 6 1010 l 302 1010 l 519 620 l 730 1010 l 1016 1010 "},"\"":{"x_min":113,"x_max":703,"ha":816,"o":"m 703 1055 l 662 656 l 508 656 l 468 1055 l 703 1055 m 348 1055 l 307 656 l 153 656 l 113 1055 l 348 1055 "},"‹":{"x_min":147,"x_max":555,"ha":755,"o":"m 555 87 l 147 401 l 147 492 l 555 806 l 555 597 l 350 446 l 555 295 l 555 87 "},"Є":{"x_min":70,"x_max":961,"ha":1030,"o":"m 961 58 q 896 31 927 43 q 813 6 865 19 q 714 -12 764 -5 q 596 -20 664 -20 q 383 13 480 -20 q 217 112 286 46 q 108 276 147 178 q 70 503 70 374 q 106 721 70 624 q 213 889 143 819 q 380 994 282 958 q 596 1030 478 1030 q 709 1023 657 1030 q 808 1005 762 1016 q 893 980 855 994 q 961 952 931 966 l 961 721 l 933 721 q 884 757 910 739 q 813 798 859 776 q 725 831 777 817 q 621 845 673 845 q 529 833 572 845 q 444 794 486 822 q 375 726 404 768 q 335 624 347 684 l 778 624 l 778 431 l 326 431 q 362 302 332 353 q 434 219 392 250 q 522 178 474 191 q 622 165 570 165 q 730 178 679 165 q 820 211 781 191 q 885 250 855 229 q 934 287 915 271 l 961 287 l 961 58 "},"″":{"x_min":79,"x_max":845,"ha":856,"o":"m 845 1010 l 606 577 l 445 577 l 596 1010 l 845 1010 m 479 1010 l 240 577 l 79 577 l 230 1010 l 479 1010 "},"„":{"x_min":36,"x_max":761,"ha":816,"o":"m 392 267 l 194 -132 l 36 -132 l 142 267 l 392 267 m 761 267 l 563 -132 l 405 -132 l 511 267 l 761 267 "},"ч":{"x_min":79,"x_max":835,"ha":950,"o":"m 835 0 l 590 0 l 590 261 q 470 240 529 248 q 344 232 412 232 q 149 294 220 232 q 79 467 79 356 l 79 762 l 324 762 l 324 587 q 327 508 324 536 q 351 452 330 479 q 402 417 370 429 q 499 406 435 406 q 544 407 516 406 q 590 412 572 409 l 590 762 l 835 762 l 835 0 "},"|":{"x_min":279,"x_max":476,"ha":755,"o":"m 476 -266 l 279 -266 l 279 1055 l 476 1055 l 476 -266 "},"џ":{"x_min":115,"x_max":885,"ha":1000,"o":"m 885 0 l 608 0 l 608 -190 l 391 -190 l 391 0 l 115 0 l 115 762 l 360 762 l 360 164 l 640 164 l 640 762 l 885 762 l 885 0 "},"љ":{"x_min":17,"x_max":1360,"ha":1406,"o":"m 1109 255 q 1079 328 1109 304 q 995 353 1050 353 l 863 353 l 863 154 l 995 154 q 1055 164 1032 154 q 1089 190 1078 175 q 1104 221 1100 205 q 1109 255 1109 238 m 1360 257 q 1336 149 1360 198 q 1276 68 1313 99 q 1181 15 1230 31 q 1048 0 1132 0 l 620 0 l 620 592 l 425 592 q 421 512 422 541 q 419 447 420 484 q 401 269 414 337 q 366 157 387 200 q 322 87 346 113 q 275 42 299 61 q 204 7 248 20 q 120 -5 160 -5 q 55 -2 88 -5 q 17 0 23 0 l 17 195 l 24 195 q 34 194 27 195 q 47 194 40 194 q 83 197 65 194 q 114 212 102 200 q 175 321 160 255 q 197 514 191 386 q 203 623 200 562 q 208 762 205 684 l 863 762 l 863 508 l 1049 508 q 1182 496 1131 508 q 1277 450 1232 484 q 1339 368 1318 419 q 1360 257 1360 317 "},"И":{"x_min":129,"x_max":1050,"ha":1175,"o":"m 1050 0 l 796 0 l 796 672 l 377 0 l 129 0 l 129 1010 l 383 1010 l 383 401 l 772 1010 l 1050 1010 l 1050 0 "},"й":{"x_min":115,"x_max":885,"ha":1000,"o":"m 885 0 l 648 0 l 648 466 l 317 0 l 115 0 l 115 762 l 352 762 l 352 344 l 658 762 l 885 762 l 885 0 m 801 1100 q 725 919 801 989 q 501 850 649 850 q 277 920 353 850 q 201 1100 201 990 l 390 1100 q 415 999 391 1032 q 501 967 440 967 q 586 999 562 967 q 612 1100 610 1031 l 801 1100 "},"b":{"x_min":115,"x_max":910,"ha":971,"o":"m 910 391 q 810 98 910 211 q 563 -15 711 -15 q 451 -1 499 -15 q 360 37 403 12 l 349 0 l 115 0 l 115 1055 l 360 1055 l 360 682 q 474 755 416 727 q 609 783 533 783 q 832 678 754 783 q 910 391 910 574 m 658 386 q 623 543 658 488 q 500 598 589 598 q 429 587 466 598 q 360 557 393 577 l 360 175 q 410 162 386 165 q 466 159 433 159 q 610 215 563 159 q 658 386 658 272 "},"q":{"x_min":61,"x_max":856,"ha":971,"o":"m 856 -279 l 611 -279 l 611 74 q 494 2 551 26 q 366 -21 437 -21 q 143 86 226 -21 q 61 375 61 193 q 89 547 61 472 q 165 675 117 622 q 277 754 212 726 q 409 783 343 783 q 517 768 473 783 q 609 728 560 753 l 618 762 l 856 762 l 856 -279 m 611 209 l 611 584 q 556 600 585 595 q 504 605 528 605 q 360 544 408 605 q 313 377 313 484 q 351 214 313 265 q 475 164 390 164 q 545 176 508 164 q 611 209 582 189 "},"Љ":{"x_min":12,"x_max":1636,"ha":1698,"o":"m 1367 317 q 1361 364 1367 342 q 1337 405 1356 387 q 1287 435 1319 424 q 1198 446 1255 446 l 1034 446 l 1034 189 l 1198 189 q 1276 199 1241 189 q 1328 227 1310 210 q 1357 266 1347 243 q 1367 317 1367 289 m 1636 324 q 1607 188 1636 250 q 1530 86 1579 126 q 1402 18 1469 37 q 1240 0 1335 0 l 774 0 l 774 815 l 496 815 q 490 710 492 748 q 484 610 488 672 q 457 379 475 472 q 417 225 439 286 q 368 126 394 164 q 316 62 342 87 q 233 12 283 31 q 128 -7 184 -7 q 58 -4 94 -7 q 12 0 22 -1 l 12 226 l 21 226 q 35 224 27 225 q 53 224 43 224 q 111 229 94 224 q 142 245 129 234 q 213 389 193 291 q 242 666 232 488 q 248 819 246 736 q 253 1010 250 902 l 1034 1010 l 1034 634 l 1243 634 q 1416 619 1347 634 q 1536 562 1484 604 q 1612 459 1588 522 q 1636 324 1636 397 "},"р":{"x_min":115,"x_max":910,"ha":971,"o":"m 910 391 q 881 219 910 297 q 805 92 852 142 q 695 12 756 39 q 563 -15 633 -15 q 452 -1 498 -15 q 360 37 407 12 l 360 -279 l 115 -279 l 115 762 l 360 762 l 360 682 q 474 755 416 727 q 609 783 533 783 q 831 678 752 783 q 910 391 910 574 m 658 386 q 620 547 658 497 q 500 598 582 598 q 429 587 466 598 q 360 557 393 576 l 360 173 q 412 161 384 164 q 466 159 439 159 q 610 215 563 159 q 658 386 658 272 "},"т":{"x_min":6,"x_max":737,"ha":743,"o":"m 737 597 l 494 597 l 494 0 l 249 0 l 249 597 l 6 597 l 6 762 l 737 762 l 737 597 "},"П":{"x_min":129,"x_max":1034,"ha":1163,"o":"m 1034 0 l 774 0 l 774 815 l 389 815 l 389 0 l 129 0 l 129 1010 l 1034 1010 l 1034 0 "},"z":{"x_min":57,"x_max":772,"ha":829,"o":"m 772 0 l 57 0 l 57 156 l 458 584 l 73 584 l 73 762 l 765 762 l 765 608 l 369 182 l 772 182 l 772 0 "},"™":{"x_min":97,"x_max":1210,"ha":1339,"o":"m 1210 519 l 1078 519 l 1078 902 l 1063 902 l 943 634 l 851 634 l 729 907 l 712 907 l 712 519 l 587 519 l 587 1010 l 800 1010 l 899 769 l 1002 1010 l 1210 1010 l 1210 519 m 509 904 l 369 904 l 369 519 l 237 519 l 237 904 l 97 904 l 97 1010 l 509 1010 l 509 904 "},"Ж":{"x_min":12,"x_max":1537,"ha":1549,"o":"m 1537 0 l 1226 0 l 969 414 l 904 414 l 904 0 l 645 0 l 645 414 l 578 414 l 321 0 l 12 0 l 350 516 q 307 560 327 530 q 260 659 286 591 q 236 712 249 689 q 207 753 224 735 q 169 779 190 770 q 121 788 148 788 l 62 788 l 62 1009 q 104 1010 76 1009 q 168 1012 131 1012 q 334 972 273 1012 q 436 842 394 932 q 460 785 446 821 q 486 725 474 749 q 558 617 525 645 q 645 590 591 590 l 645 1010 l 904 1010 l 904 590 q 992 616 961 590 q 1064 725 1024 642 q 1090 784 1076 751 q 1114 842 1103 817 q 1215 971 1155 930 q 1380 1012 1276 1012 q 1444 1010 1415 1012 q 1487 1009 1474 1009 l 1487 791 l 1427 791 q 1378 783 1397 791 q 1344 761 1360 776 q 1315 718 1328 745 q 1289 662 1302 692 q 1240 565 1260 596 q 1196 519 1221 534 l 1537 0 "},"и":{"x_min":115,"x_max":885,"ha":1000,"o":"m 885 0 l 648 0 l 648 466 l 317 0 l 115 0 l 115 762 l 352 762 l 352 344 l 658 762 l 885 762 l 885 0 "},"~":{"x_min":106,"x_max":1101,"ha":1205,"o":"m 1101 683 q 1026 341 1100 460 q 807 222 953 222 q 722 233 758 222 q 657 263 686 244 q 605 306 628 282 q 558 358 583 329 q 520 405 542 377 q 482 450 498 434 q 445 483 463 471 q 404 495 427 495 q 342 474 363 495 q 310 419 321 453 q 294 328 297 383 q 289 221 290 273 l 106 221 q 181 565 106 448 q 399 682 256 682 q 483 670 446 682 q 551 639 520 658 q 603 596 579 620 q 649 545 626 572 q 685 500 665 526 q 725 453 704 475 q 766 419 748 430 q 802 409 784 409 q 863 428 841 409 q 896 484 886 448 q 912 570 908 519 q 918 683 916 621 l 1101 683 "},"Н":{"x_min":129,"x_max":1034,"ha":1163,"o":"m 1034 0 l 774 0 l 774 445 l 389 445 l 389 0 l 129 0 l 129 1010 l 389 1010 l 389 640 l 774 640 l 774 1010 l 1034 1010 l 1034 0 "},"ф":{"x_min":61,"x_max":1280,"ha":1342,"o":"m 1280 398 q 1254 222 1280 299 q 1183 93 1229 145 q 1076 15 1135 40 q 941 -10 1016 -10 q 849 3 885 -10 q 791 27 812 17 l 791 -279 l 550 -279 l 550 28 q 482 1 522 12 q 386 -10 443 -10 q 147 92 233 -10 q 61 375 61 194 q 87 546 61 472 q 159 671 113 619 q 265 748 204 722 q 396 775 327 775 q 488 762 451 775 q 550 735 525 749 l 550 1055 l 791 1055 l 791 735 q 864 762 819 749 q 961 775 909 775 q 1197 677 1114 775 q 1280 398 1280 579 m 1032 385 q 988 551 1032 499 q 851 603 944 603 q 821 601 835 603 q 791 596 807 600 l 791 167 q 819 163 805 164 q 850 162 833 162 q 987 216 943 162 q 1032 385 1032 271 m 550 167 l 550 597 q 523 601 539 599 q 489 603 508 603 q 352 548 396 603 q 309 379 309 493 q 353 213 309 265 q 490 162 397 162 q 521 163 503 162 q 550 167 538 164 "},"₧":{"x_min":129,"x_max":1819,"ha":1866,"o":"m 1819 231 q 1733 50 1819 121 q 1493 -21 1648 -21 q 1346 -3 1412 -21 q 1225 40 1279 14 l 1225 232 l 1239 232 q 1275 205 1251 221 q 1331 173 1300 188 q 1399 146 1363 157 q 1474 136 1434 136 q 1558 155 1537 136 q 1580 201 1580 174 q 1559 246 1580 228 q 1471 287 1539 264 q 1429 301 1455 292 q 1386 317 1403 311 q 1271 404 1309 347 q 1234 542 1234 462 q 1235 559 1234 552 q 1236 570 1236 567 l 1124 570 l 1124 0 l 889 0 l 889 570 l 783 570 q 763 533 772 549 q 738 502 754 518 q 624 422 689 450 q 464 395 559 395 l 374 395 l 374 0 l 129 0 l 129 1010 l 465 1010 q 603 995 545 1010 q 705 949 660 980 q 782 862 754 916 q 813 738 810 809 l 891 738 l 891 884 l 1124 884 l 1124 738 l 1331 738 q 1426 768 1362 754 q 1542 782 1491 782 q 1676 766 1609 782 q 1782 731 1743 750 l 1782 545 l 1766 545 q 1668 605 1712 586 q 1575 625 1623 625 q 1497 607 1525 625 q 1470 561 1470 590 q 1495 510 1470 529 q 1565 477 1521 491 q 1611 461 1585 470 q 1653 447 1637 452 q 1783 360 1747 414 q 1819 231 1819 305 m 568 709 q 557 772 568 747 q 522 816 546 798 q 472 835 501 831 q 406 840 442 840 l 374 840 l 374 563 l 393 563 q 477 568 445 563 q 531 600 508 573 q 559 647 551 624 q 568 709 568 670 "},"л":{"x_min":17,"x_max":870,"ha":985,"o":"m 870 0 l 625 0 l 625 592 l 425 592 q 421 512 422 541 q 419 447 420 484 q 401 269 414 337 q 366 157 387 200 q 322 87 346 113 q 275 42 299 61 q 204 7 248 20 q 120 -5 160 -5 q 55 -2 88 -5 q 17 0 23 0 l 17 195 l 24 195 q 34 194 27 195 q 47 194 40 194 q 83 197 65 194 q 114 212 102 200 q 175 321 160 255 q 197 514 191 386 q 203 623 200 562 q 208 762 205 684 l 870 762 l 870 0 "},"[":{"x_min":168,"x_max":621,"ha":755,"o":"m 621 -266 l 168 -266 l 168 1055 l 621 1055 l 621 892 l 380 892 l 380 -103 l 621 -103 l 621 -266 "},"Щ":{"x_min":129,"x_max":1587,"ha":1635,"o":"m 1348 0 l 129 0 l 129 1010 l 389 1010 l 389 192 l 678 192 l 678 1010 l 938 1010 l 938 192 l 1227 192 l 1227 1010 l 1487 1010 l 1487 193 l 1587 193 l 1587 -232 l 1348 -232 l 1348 0 "},"L":{"x_min":129,"x_max":857,"ha":885,"o":"m 857 0 l 129 0 l 129 1010 l 389 1010 l 389 195 l 857 195 l 857 0 "},"К":{"x_min":129,"x_max":1071,"ha":1071,"o":"m 1071 0 l 752 0 l 453 407 l 389 407 l 389 0 l 129 0 l 129 1010 l 389 1010 l 389 598 q 441 604 420 599 q 480 622 463 609 q 520 662 499 636 q 564 728 541 689 q 596 787 578 753 q 626 842 614 820 q 736 972 678 933 q 911 1012 794 1012 q 972 1010 945 1012 q 1013 1009 1000 1009 l 1013 791 l 937 791 q 850 762 881 791 q 782 661 819 733 q 721 561 745 590 q 675 520 697 532 l 1071 0 "}," ":{"x_min":0,"x_max":0,"ha":475},"∑":{"x_min":68,"x_max":916,"ha":970,"o":"m 916 -128 l 68 -128 l 68 60 l 426 432 l 75 817 l 75 1010 l 899 1010 l 899 815 l 396 815 l 720 459 l 720 402 l 390 67 l 916 67 l 916 -128 "},"%":{"x_min":97,"x_max":1670,"ha":1767,"o":"m 711 702 q 633 452 711 533 q 406 371 555 371 q 174 453 252 371 q 97 700 97 535 q 176 948 97 867 q 406 1030 255 1030 q 634 948 557 1030 q 711 702 711 867 m 1241 1010 l 711 0 l 529 0 l 1058 1010 l 1241 1010 m 1670 310 q 1592 60 1670 141 q 1365 -21 1514 -21 q 1133 61 1211 -21 q 1056 308 1056 143 q 1135 556 1056 475 q 1365 638 1214 638 q 1593 556 1516 638 q 1670 310 1670 475 m 511 701 q 485 847 511 809 q 404 886 460 886 q 322 847 347 886 q 297 700 297 809 q 322 553 297 591 q 404 515 347 515 q 485 553 460 515 q 511 701 511 591 m 1470 309 q 1444 455 1470 417 q 1363 494 1419 494 q 1281 455 1306 494 q 1256 308 1256 417 q 1281 161 1256 199 q 1363 123 1306 123 q 1444 161 1419 123 q 1470 309 1470 199 "},"P":{"x_min":129,"x_max":962,"ha":1018,"o":"m 962 691 q 938 558 962 623 q 870 449 914 493 q 735 359 810 390 q 551 329 661 329 l 389 329 l 389 0 l 129 0 l 129 1010 l 557 1010 q 719 993 653 1010 q 836 943 785 976 q 929 841 897 903 q 962 691 962 778 m 693 685 q 669 758 693 727 q 616 801 646 789 q 536 819 575 817 q 433 821 498 821 l 389 821 l 389 520 l 463 520 q 573 528 530 520 q 645 560 616 536 q 681 612 670 582 q 693 685 693 642 "},"∏":{"x_min":28,"x_max":1179,"ha":1207,"o":"m 1179 816 l 1021 816 l 1021 -131 l 761 -131 l 761 816 l 446 816 l 446 -131 l 186 -131 l 186 816 l 28 816 l 28 1010 l 1179 1010 l 1179 816 "},"_":{"x_min":-11,"x_max":999,"ha":988,"o":"m 999 -238 l -11 -238 l -11 -94 l 999 -94 l 999 -238 "},"+":{"x_min":148,"x_max":1057,"ha":1205,"o":"m 1057 358 l 695 358 l 695 0 l 509 0 l 509 358 l 148 358 l 148 540 l 509 540 l 509 898 l 695 898 l 695 540 l 1057 540 l 1057 358 "},"‚":{"x_min":36,"x_max":392,"ha":461,"o":"m 392 267 l 194 -132 l 36 -132 l 142 267 l 392 267 "},"₣":{"x_min":69,"x_max":888,"ha":988,"o":"m 888 815 l 440 815 l 440 644 l 861 644 l 861 449 l 440 449 l 440 323 l 679 323 l 679 174 l 440 174 l 440 0 l 188 0 l 188 174 l 69 174 l 69 323 l 188 323 l 188 1010 l 888 1010 l 888 815 "},"ѓ":{"x_min":115,"x_max":731,"ha":738,"o":"m 731 592 l 360 592 l 360 0 l 115 0 l 115 762 l 731 762 l 731 592 m 687 1137 l 687 1123 l 448 870 l 281 870 l 448 1137 l 687 1137 "},"ы":{"x_min":115,"x_max":1186,"ha":1302,"o":"m 605 255 q 575 328 605 304 q 491 353 546 353 l 358 353 l 358 154 l 491 154 q 551 164 528 154 q 585 190 574 175 q 600 221 596 205 q 605 255 605 238 m 856 257 q 832 149 856 198 q 772 68 809 99 q 677 15 726 31 q 544 0 628 0 l 115 0 l 115 762 l 358 762 l 358 508 l 544 508 q 677 496 627 508 q 773 450 728 484 q 835 368 814 419 q 856 257 856 317 m 1186 0 l 941 0 l 941 762 l 1186 762 l 1186 0 "},"'":{"x_min":113,"x_max":348,"ha":461,"o":"m 348 1055 l 307 656 l 153 656 l 113 1055 l 348 1055 "},"ї":{"x_min":-13,"x_max":488,"ha":475,"o":"m 360 0 l 115 0 l 115 762 l 360 762 l 360 0 m 488 871 l 300 871 l 300 1056 l 488 1056 l 488 871 m 175 871 l -13 871 l -13 1056 l 175 1056 l 175 871 "},"Р":{"x_min":129,"x_max":962,"ha":1018,"o":"m 962 691 q 938 558 962 623 q 870 449 914 493 q 735 359 810 390 q 551 329 661 329 l 389 329 l 389 0 l 129 0 l 129 1010 l 557 1010 q 719 993 653 1010 q 836 943 785 976 q 929 841 897 903 q 962 691 962 778 m 693 685 q 669 758 693 727 q 616 801 646 789 q 536 819 575 817 q 433 821 498 821 l 389 821 l 389 520 l 463 520 q 573 528 530 520 q 645 560 616 536 q 681 612 670 582 q 693 685 693 642 "},"щ":{"x_min":116,"x_max":1355,"ha":1407,"o":"m 1138 0 l 116 0 l 116 762 l 359 762 l 359 168 l 575 168 l 575 762 l 818 762 l 818 168 l 1034 168 l 1034 762 l 1277 762 l 1277 168 l 1355 168 l 1355 -189 l 1138 -189 l 1138 0 "},"T":{"x_min":28,"x_max":918,"ha":947,"o":"m 918 815 l 603 815 l 603 0 l 343 0 l 343 815 l 28 815 l 28 1010 l 918 1010 l 918 815 "},"Њ":{"x_min":129,"x_max":1625,"ha":1687,"o":"m 1356 317 q 1350 364 1356 342 q 1326 405 1345 387 q 1276 435 1308 424 q 1188 446 1244 446 l 1024 446 l 1024 189 l 1188 189 q 1265 199 1231 189 q 1317 227 1299 210 q 1346 266 1336 243 q 1356 317 1356 289 m 1625 324 q 1596 188 1625 250 q 1519 86 1568 126 q 1391 18 1458 37 q 1229 0 1324 0 l 764 0 l 764 446 l 389 446 l 389 0 l 129 0 l 129 1010 l 389 1010 l 389 634 l 764 634 l 764 1010 l 1024 1010 l 1024 634 l 1233 634 q 1405 618 1337 634 q 1525 562 1473 603 q 1601 459 1577 522 q 1625 324 1625 397 "},"℮":{"x_min":87,"x_max":954,"ha":1039,"o":"m 954 390 l 343 390 q 371 284 347 326 q 431 217 395 242 q 516 181 467 193 q 623 169 566 169 q 720 181 672 169 q 799 208 767 193 q 863 241 836 225 q 909 272 890 258 l 940 272 l 940 53 q 876 29 913 43 q 802 6 839 15 q 702 -12 751 -6 q 597 -18 652 -18 q 218 100 350 -18 q 87 434 87 219 q 213 775 87 650 q 552 901 340 901 q 853 793 753 901 q 954 485 954 686 l 954 390 m 694 549 q 652 685 691 637 q 530 734 612 734 q 402 689 453 734 q 345 549 351 644 l 694 549 "},"є":{"x_min":60,"x_max":776,"ha":841,"o":"m 776 35 q 659 -3 726 13 q 513 -20 591 -20 q 330 4 413 -20 q 187 76 247 28 q 93 201 126 126 q 60 378 60 277 q 96 564 60 487 q 195 690 133 640 q 337 760 256 738 q 506 783 419 783 q 652 766 582 783 q 776 725 723 749 l 776 532 l 742 532 q 704 559 729 542 q 653 589 678 577 q 585 612 624 602 q 503 622 546 622 q 371 584 426 622 q 301 470 316 547 l 646 470 l 646 315 l 295 315 q 357 187 303 233 q 507 141 411 141 q 597 150 557 141 q 664 174 637 160 q 711 203 691 187 q 742 229 732 219 l 776 229 l 776 35 "},"j":{"x_min":-39,"x_max":445,"ha":560,"o":"m 445 -12 q 365 -213 445 -141 q 161 -286 286 -286 q 40 -280 95 -286 q -39 -268 -13 -274 l -39 -94 l -20 -94 q 30 -105 0 -100 q 78 -110 60 -110 q 174 -67 148 -110 q 200 70 200 -25 l 200 597 l 56 597 l 56 762 l 445 762 l 445 -12 m 445 870 l 184 870 l 184 1055 l 445 1055 l 445 870 "},"1":{"x_min":180,"x_max":854,"ha":988,"o":"m 854 0 l 180 0 l 180 176 l 393 176 l 393 710 l 180 710 l 180 875 q 273 880 228 875 q 348 900 318 886 q 401 945 383 917 q 421 1013 418 972 l 646 1013 l 646 176 l 854 176 l 854 0 "},"›":{"x_min":199,"x_max":607,"ha":755,"o":"m 607 401 l 199 87 l 199 295 l 403 446 l 199 597 l 199 806 l 607 492 l 607 401 "},"ћ":{"x_min":28,"x_max":881,"ha":990,"o":"m 881 0 l 636 0 l 636 378 q 631 470 636 424 q 614 537 626 516 q 575 574 601 562 q 502 586 548 586 q 434 575 468 586 q 360 540 400 564 l 360 0 l 115 0 l 115 839 l 28 839 l 28 979 l 115 979 l 115 1055 l 360 1055 l 360 979 l 581 979 l 581 839 l 360 839 l 360 677 q 485 755 425 728 q 618 783 545 783 q 811 711 741 783 q 881 495 881 639 l 881 0 "},"ℓ":{"x_min":10,"x_max":535,"ha":575,"o":"m 10 308 l 130 438 l 130 733 q 194 931 130 852 q 369 1010 258 1010 q 492 965 450 1010 q 535 848 535 921 q 490 705 535 785 q 325 485 445 624 l 325 169 q 339 104 325 118 q 371 91 353 91 q 414 99 388 91 q 509 158 441 108 l 509 42 q 427 -1 471 13 q 344 -16 383 -16 q 177 32 225 -16 q 130 167 130 80 l 130 282 l 81 232 l 10 308 m 325 640 q 408 774 393 738 q 424 847 424 809 q 420 877 424 867 q 410 897 417 888 q 395 910 404 905 q 376 916 386 916 q 356 908 365 916 q 341 891 346 901 q 329 839 333 877 q 325 742 325 801 l 325 640 "},"Т":{"x_min":28,"x_max":918,"ha":947,"o":"m 918 815 l 603 815 l 603 0 l 343 0 l 343 815 l 28 815 l 28 1010 l 918 1010 l 918 815 "},"<":{"x_min":138,"x_max":1044,"ha":1205,"o":"m 1044 -5 l 138 371 l 138 525 l 1044 902 l 1044 707 l 411 447 l 1044 189 l 1044 -5 "},"Ц":{"x_min":129,"x_max":1132,"ha":1180,"o":"m 893 0 l 129 0 l 129 1010 l 389 1010 l 389 193 l 772 193 l 772 1010 l 1032 1010 l 1032 193 l 1132 193 l 1132 -232 l 893 -232 l 893 0 "},"t":{"x_min":30,"x_max":602,"ha":633,"o":"m 602 6 q 518 -9 562 -3 q 411 -15 474 -15 q 199 42 268 -15 q 130 240 130 100 l 130 597 l 30 597 l 30 762 l 130 762 l 130 980 l 375 980 l 375 762 l 602 762 l 602 597 l 375 597 l 375 325 q 375 255 375 285 q 386 201 376 225 q 419 163 395 177 q 489 150 443 150 q 539 158 508 150 q 581 173 569 166 l 602 173 l 602 6 "},"W":{"x_min":45,"x_max":1522,"ha":1567,"o":"m 1522 1010 l 1250 0 l 961 0 l 781 657 l 605 0 l 316 0 l 45 1010 l 317 1010 l 472 314 l 657 1010 l 917 1010 l 1094 314 l 1256 1010 l 1522 1010 "},"а":{"x_min":58,"x_max":819,"ha":928,"o":"m 577 199 l 577 357 q 469 345 527 352 q 381 329 411 338 q 325 295 344 317 q 306 238 306 273 q 310 199 306 214 q 330 171 314 184 q 367 151 346 157 q 436 145 389 145 q 510 159 472 145 q 577 199 548 174 m 577 80 q 528 44 557 65 q 473 11 498 23 q 398 -12 437 -4 q 313 -20 359 -20 q 131 47 204 -20 q 58 218 58 114 q 95 354 58 301 q 201 437 132 407 q 369 481 269 468 q 578 500 470 493 l 578 504 q 526 590 578 566 q 374 615 474 615 q 245 593 313 615 q 146 561 176 572 l 124 561 l 124 744 q 250 769 162 755 q 424 783 337 783 q 726 718 633 783 q 819 517 819 654 l 819 0 l 577 0 l 577 80 "},"Ф":{"x_min":63,"x_max":1260,"ha":1323,"o":"m 1135 804 q 1227 681 1195 754 q 1260 512 1260 607 q 1226 345 1260 418 q 1131 218 1193 271 q 984 137 1067 166 q 791 101 900 108 l 791 -10 l 532 -10 l 532 101 q 339 137 425 108 q 191 219 253 167 q 96 345 129 271 q 63 512 63 418 q 94 678 63 607 q 187 801 126 749 q 335 880 246 850 q 532 918 424 909 l 532 1021 l 791 1021 l 791 918 q 988 883 902 911 q 1135 804 1074 855 m 991 516 q 939 675 991 614 q 791 749 887 736 l 791 269 q 947 348 903 288 q 991 516 991 408 m 532 269 l 532 749 q 382 676 432 734 q 332 516 332 618 q 377 349 332 410 q 532 269 422 288 "},">":{"x_min":160,"x_max":1066,"ha":1205,"o":"m 1066 371 l 160 -5 l 160 189 l 793 448 l 160 707 l 160 902 l 1066 525 l 1066 371 "},"v":{"x_min":20,"x_max":883,"ha":903,"o":"m 883 762 l 589 0 l 311 0 l 20 762 l 278 762 l 455 237 l 630 762 l 883 762 "},"Ї":{"x_min":84,"x_max":674,"ha":758,"o":"m 674 0 l 84 0 l 84 179 l 249 179 l 249 831 l 84 831 l 84 1010 l 674 1010 l 674 831 l 509 831 l 509 179 l 674 179 l 674 0 m 662 1123 l 461 1123 l 461 1308 l 662 1308 l 662 1123 m 298 1123 l 97 1123 l 97 1308 l 298 1308 l 298 1123 "},"О":{"x_min":70,"x_max":1111,"ha":1181,"o":"m 1111 504 q 972 121 1111 263 q 590 -21 834 -21 q 208 121 346 -21 q 70 504 70 263 q 208 889 70 748 q 590 1031 346 1031 q 971 889 832 1031 q 1111 504 1111 748 m 765 249 q 821 357 803 295 q 840 505 840 420 q 819 659 840 596 q 764 762 798 723 q 684 821 729 803 q 590 840 639 840 q 497 822 541 840 q 417 764 454 804 q 362 659 383 726 q 341 504 341 592 q 361 351 341 414 q 416 247 382 287 q 495 188 450 207 q 590 170 540 170 q 686 189 640 170 q 765 249 731 208 "},"&":{"x_min":82,"x_max":1222,"ha":1198,"o":"m 1222 0 l 899 0 l 805 85 q 655 5 737 31 q 482 -21 573 -21 q 188 65 295 -21 q 82 291 82 151 q 98 391 82 348 q 143 468 115 434 q 204 524 170 501 q 270 565 239 548 q 216 609 242 586 q 171 659 190 632 q 143 717 153 685 q 133 789 133 749 q 153 878 133 837 q 214 953 173 920 q 327 1009 256 988 q 495 1031 398 1031 q 642 1014 577 1031 q 750 968 706 998 q 813 899 791 940 q 836 812 836 859 q 826 744 836 781 q 793 673 817 706 q 723 607 766 638 q 604 553 680 577 l 812 371 l 812 589 l 1065 589 l 1065 513 q 1037 360 1065 433 q 963 239 1010 287 l 1222 13 l 1222 0 m 583 783 q 572 839 583 818 q 545 870 561 859 q 511 884 529 881 q 483 887 494 887 q 457 884 471 887 q 424 870 442 881 q 399 841 410 860 q 389 792 389 823 q 421 715 389 752 q 506 638 454 677 q 563 704 544 668 q 583 783 583 741 m 686 200 l 396 457 q 364 408 382 443 q 347 330 347 373 q 364 252 347 285 q 408 198 382 219 q 468 165 435 176 q 533 155 501 155 q 615 164 580 155 q 686 200 651 173 "},"‛":{"x_min":22,"x_max":378,"ha":461,"o":"m 378 1055 l 271 656 l 22 656 l 219 1055 l 378 1055 "},"I":{"x_min":84,"x_max":674,"ha":758,"o":"m 674 0 l 84 0 l 84 179 l 249 179 l 249 831 l 84 831 l 84 1010 l 674 1010 l 674 831 l 509 831 l 509 179 l 674 179 l 674 0 "},"G":{"x_min":70,"x_max":1023,"ha":1127,"o":"m 1023 57 q 843 5 955 31 q 619 -21 731 -21 q 215 119 361 -21 q 70 506 70 259 q 217 885 70 741 q 628 1030 364 1030 q 818 1012 727 1030 q 1019 940 908 994 l 1019 704 l 989 704 q 934 744 970 718 q 863 788 897 770 q 771 825 824 809 q 659 841 719 841 q 534 820 590 841 q 433 758 478 800 q 365 654 390 717 q 341 510 341 592 q 429 253 341 342 q 692 165 518 165 q 725 165 707 165 q 758 167 743 166 l 758 365 l 557 365 l 557 556 l 1023 556 l 1023 57 "},"`":{"x_min":254,"x_max":660,"ha":988,"o":"m 660 870 l 492 870 l 254 1123 l 254 1137 l 492 1137 l 660 870 "},"Х":{"x_min":16,"x_max":1045,"ha":1061,"o":"m 1045 0 l 743 0 l 525 332 l 303 0 l 16 0 l 374 508 l 23 1010 l 323 1010 l 534 694 l 751 1010 l 1040 1010 l 686 518 l 1045 0 "},"r":{"x_min":115,"x_max":667,"ha":690,"o":"m 667 528 l 645 528 q 595 536 629 533 q 537 539 560 539 q 445 532 485 539 q 360 509 405 525 l 360 0 l 115 0 l 115 762 l 360 762 l 360 650 q 499 741 440 719 q 609 764 559 764 q 638 763 622 764 q 667 761 654 762 l 667 528 "},"₤":{"x_min":104,"x_max":899,"ha":988,"o":"m 899 0 l 104 0 l 104 188 q 199 238 170 206 q 239 324 228 270 l 125 324 l 125 442 l 248 442 l 248 534 l 125 534 l 125 652 l 246 652 l 246 733 q 346 946 246 863 q 610 1030 445 1030 q 763 1018 702 1030 q 860 997 824 1007 l 860 786 l 829 786 q 732 830 777 817 q 647 843 686 843 q 532 802 576 843 q 489 690 489 762 l 489 652 l 786 652 l 786 534 l 488 534 l 488 442 l 786 442 l 786 324 l 475 324 q 435 250 464 284 q 372 198 405 216 l 372 191 l 899 191 l 899 0 "},"ж":{"x_min":31,"x_max":1358,"ha":1388,"o":"m 1358 0 l 1077 0 l 885 302 l 816 302 l 816 0 l 573 0 l 573 302 l 503 302 l 311 0 l 31 0 l 293 392 q 263 423 274 406 q 235 477 251 440 q 190 540 214 523 q 128 558 165 558 l 62 558 l 62 761 q 100 762 73 761 q 155 763 127 763 q 297 729 249 763 q 381 632 345 695 q 403 590 389 617 q 428 544 417 563 q 488 468 464 481 q 573 456 511 456 l 573 762 l 816 762 l 816 456 q 905 470 883 456 q 960 544 927 485 q 984 589 970 561 q 1007 632 998 617 q 1087 726 1037 689 q 1233 763 1138 763 q 1287 762 1259 763 q 1327 761 1316 761 l 1327 558 l 1260 558 q 1197 539 1222 558 q 1153 477 1172 520 q 1126 425 1138 444 q 1095 392 1114 405 l 1358 0 "},"x":{"x_min":18,"x_max":911,"ha":929,"o":"m 911 0 l 626 0 l 463 228 l 296 0 l 18 0 l 318 380 l 23 762 l 307 762 l 467 538 l 628 762 l 908 762 l 611 386 l 911 0 "},"Ђ":{"x_min":28,"x_max":1203,"ha":1265,"o":"m 1203 324 q 1174 188 1203 250 q 1097 86 1146 126 q 978 19 1038 39 q 812 0 919 0 l 736 0 l 736 191 l 772 191 q 850 201 818 191 q 899 228 882 211 q 926 267 919 246 q 934 316 934 288 q 928 364 934 341 q 904 405 923 386 q 854 435 886 424 q 765 446 822 446 l 582 446 l 582 0 l 322 0 l 322 815 l 28 815 l 28 1010 l 897 1010 l 897 815 l 582 815 l 582 634 l 810 634 q 983 619 917 634 q 1103 562 1050 604 q 1179 459 1155 522 q 1203 324 1203 397 "},"∞":{"x_min":120,"x_max":1350,"ha":1470,"o":"m 1350 449 q 1323 280 1350 353 q 1252 160 1296 206 q 1145 88 1204 111 q 1013 65 1086 65 q 852 110 926 65 q 727 246 779 156 q 600 108 670 152 q 432 65 529 65 q 205 168 291 65 q 120 435 120 272 q 212 717 120 615 q 456 820 305 820 q 618 774 545 820 q 743 638 690 729 q 870 775 798 730 q 1037 820 942 820 q 1264 716 1178 820 q 1350 449 1350 612 m 1174 449 q 1137 582 1174 534 q 1037 630 1100 630 q 959 613 991 630 q 901 561 927 597 q 850 481 873 525 q 807 391 827 437 q 896 289 844 324 q 1005 255 949 255 q 1129 305 1085 255 q 1174 449 1174 355 m 662 493 q 572 595 624 561 q 464 630 520 630 q 339 577 383 630 q 296 435 296 525 q 330 305 296 355 q 432 255 365 255 q 534 286 498 255 q 603 374 569 318 q 635 432 623 409 q 662 493 646 455 "},"с":{"x_min":60,"x_max":771,"ha":831,"o":"m 512 -20 q 330 3 412 -20 q 186 76 247 27 q 93 201 126 126 q 60 378 60 277 q 95 561 60 484 q 194 690 131 639 q 337 760 256 738 q 504 783 417 783 q 648 766 582 783 q 771 722 714 749 l 771 514 l 736 514 q 702 542 722 526 q 653 574 682 558 q 592 599 625 589 q 515 609 559 609 q 365 546 417 609 q 313 378 313 484 q 366 211 313 268 q 519 154 420 154 q 602 164 565 154 q 663 189 639 175 q 704 217 686 202 q 736 247 721 232 l 771 247 l 771 38 q 650 -4 713 11 q 512 -20 588 -20 "},"h":{"x_min":115,"x_max":881,"ha":990,"o":"m 881 0 l 636 0 l 636 378 q 631 470 636 424 q 614 537 626 516 q 575 574 601 562 q 502 586 548 586 q 434 575 468 586 q 360 540 400 564 l 360 0 l 115 0 l 115 1055 l 360 1055 l 360 677 q 485 755 425 728 q 618 783 545 783 q 811 711 741 783 q 881 495 881 639 l 881 0 "},"я":{"x_min":23,"x_max":832,"ha":947,"o":"m 832 0 l 589 0 l 589 265 l 479 265 l 296 0 l 23 0 l 241 298 q 125 386 165 333 q 86 531 86 438 q 110 637 86 594 q 177 710 135 679 q 265 749 214 736 q 378 762 315 762 l 832 762 l 832 0 m 589 414 l 589 604 l 444 604 q 366 581 394 604 q 338 515 338 558 q 365 437 338 461 q 448 414 393 414 l 589 414 "},".":{"x_min":124,"x_max":378,"ha":502,"o":"m 378 0 l 124 0 l 124 267 l 378 267 l 378 0 "},"Ё":{"x_min":129,"x_max":859,"ha":949,"o":"m 859 0 l 129 0 l 129 1010 l 859 1010 l 859 815 l 388 815 l 388 640 l 825 640 l 825 445 l 388 445 l 388 195 l 859 195 l 859 0 m 777 1123 l 576 1123 l 576 1308 l 777 1308 l 777 1123 m 413 1123 l 212 1123 l 212 1308 l 413 1308 l 413 1123 "},";":{"x_min":53,"x_max":448,"ha":559,"o":"m 407 495 l 153 495 l 153 762 l 407 762 l 407 495 m 448 267 l 204 -250 l 53 -250 l 186 267 l 448 267 "},"f":{"x_min":30,"x_max":609,"ha":587,"o":"m 609 876 l 590 876 q 548 886 574 880 q 493 893 522 893 q 396 867 421 893 q 371 768 371 841 l 371 762 l 558 762 l 558 597 l 379 597 l 379 0 l 134 0 l 134 597 l 30 597 l 30 762 l 134 762 l 134 783 q 208 992 134 922 q 432 1062 282 1062 q 531 1058 487 1062 q 609 1048 575 1054 l 609 876 "},"“":{"x_min":7,"x_max":732,"ha":816,"o":"m 732 656 l 573 656 l 376 1055 l 625 1055 l 732 656 m 363 656 l 204 656 l 7 1055 l 256 1055 l 363 656 "},"Г":{"x_min":129,"x_max":857,"ha":885,"o":"m 857 815 l 389 815 l 389 0 l 129 0 l 129 1010 l 857 1010 l 857 815 "},"A":{"x_min":16,"x_max":1062,"ha":1078,"o":"m 1062 0 l 792 0 l 722 204 l 347 204 l 278 0 l 16 0 l 389 1010 l 688 1010 l 1062 0 m 659 389 l 535 750 l 411 389 l 659 389 "},"6":{"x_min":91,"x_max":917,"ha":988,"o":"m 917 343 q 888 197 917 265 q 808 82 860 128 q 681 5 753 31 q 512 -21 609 -21 q 346 3 421 -21 q 217 79 271 28 q 123 229 156 137 q 91 450 91 322 q 121 686 91 583 q 221 868 152 789 q 393 986 287 944 q 646 1029 500 1029 q 755 1022 696 1029 q 832 1012 814 1015 l 832 814 l 806 814 q 744 833 787 822 q 644 845 700 845 q 441 781 514 845 q 353 603 368 717 q 464 653 405 634 q 589 673 522 673 q 698 659 648 673 q 792 616 749 645 q 883 510 849 576 q 917 343 917 443 m 608 191 q 642 246 629 214 q 655 332 655 277 q 640 413 655 381 q 601 463 626 444 q 543 489 576 482 q 474 497 510 497 q 412 490 444 497 q 352 473 379 483 q 351 450 352 466 q 351 411 351 435 q 367 274 351 328 q 412 191 384 220 q 457 160 431 170 q 512 151 482 151 q 562 161 535 151 q 608 191 589 171 "},"‘":{"x_min":22,"x_max":378,"ha":461,"o":"m 378 656 l 219 656 l 22 1055 l 271 1055 l 378 656 "},"Ь":{"x_min":129,"x_max":991,"ha":1053,"o":"m 722 317 q 716 364 722 342 q 692 405 711 387 q 642 435 674 424 q 553 446 610 446 l 389 446 l 389 189 l 553 189 q 631 199 596 189 q 683 227 665 210 q 712 266 702 243 q 722 317 722 289 m 991 324 q 962 188 991 250 q 885 86 934 126 q 757 18 824 37 q 595 0 690 0 l 129 0 l 129 1010 l 389 1010 l 389 634 l 598 634 q 771 618 704 634 q 891 562 839 603 q 967 459 943 522 q 991 324 991 397 "},"O":{"x_min":70,"x_max":1111,"ha":1181,"o":"m 1111 504 q 972 121 1111 263 q 590 -21 834 -21 q 208 121 346 -21 q 70 504 70 263 q 208 889 70 748 q 590 1031 346 1031 q 971 889 832 1031 q 1111 504 1111 748 m 765 249 q 821 357 803 295 q 840 505 840 420 q 819 659 840 596 q 764 762 798 723 q 684 821 729 803 q 590 840 639 840 q 497 822 541 840 q 417 764 454 804 q 362 659 383 726 q 341 504 341 592 q 361 351 341 414 q 416 247 382 287 q 495 188 450 207 q 590 170 540 170 q 686 189 640 170 q 765 249 731 208 "},"n":{"x_min":115,"x_max":881,"ha":990,"o":"m 881 0 l 636 0 l 636 378 q 631 470 636 424 q 614 537 626 516 q 575 574 601 562 q 502 586 548 586 q 434 575 468 586 q 360 540 400 564 l 360 0 l 115 0 l 115 762 l 360 762 l 360 677 q 485 755 425 728 q 618 783 545 783 q 811 711 741 783 q 881 495 881 639 l 881 0 "},"3":{"x_min":95,"x_max":892,"ha":988,"o":"m 819 473 q 872 407 852 445 q 892 306 892 369 q 863 173 892 234 q 777 67 835 111 q 643 1 720 24 q 456 -21 566 -21 q 241 -1 331 -21 q 95 42 151 18 l 95 265 l 121 265 q 260 203 179 229 q 408 178 341 178 q 494 184 448 178 q 572 212 540 190 q 612 253 597 229 q 627 323 627 277 q 606 391 627 367 q 553 426 586 415 q 473 437 519 436 q 386 439 426 439 l 331 439 l 331 619 l 388 619 q 482 622 441 619 q 552 637 523 625 q 597 672 582 650 q 612 734 612 693 q 596 784 612 765 q 556 813 580 802 q 494 829 530 825 q 432 834 458 834 q 293 811 368 834 q 149 748 219 789 l 124 748 l 124 967 q 275 1010 179 989 q 469 1031 371 1031 q 637 1014 565 1031 q 756 970 709 997 q 838 889 811 936 q 866 778 866 841 q 813 628 866 694 q 675 543 761 562 l 675 534 q 748 515 710 529 q 819 473 787 501 "},"9":{"x_min":71,"x_max":897,"ha":988,"o":"m 897 561 q 864 325 897 434 q 765 141 831 216 q 587 20 693 60 q 339 -20 480 -20 q 230 -13 288 -20 q 154 -3 172 -7 l 154 195 l 181 195 q 239 174 201 185 q 341 164 276 164 q 445 177 394 164 q 532 219 496 190 q 598 295 572 249 q 632 405 624 341 q 523 354 573 372 q 397 336 472 336 q 288 349 340 336 q 194 393 237 363 q 104 498 138 433 q 71 664 71 564 q 183 928 71 826 q 479 1031 296 1031 q 647 1006 574 1031 q 772 930 720 981 q 865 781 834 872 q 897 561 897 691 m 637 599 q 621 735 637 682 q 577 818 605 788 q 531 849 557 839 q 477 859 506 859 q 426 849 451 859 q 380 818 402 840 q 346 761 359 796 q 333 676 333 725 q 347 596 333 629 q 386 545 361 564 q 442 519 410 526 q 512 512 474 512 q 579 519 543 512 q 634 535 615 527 q 635 557 634 543 q 637 599 637 571 "},"l":{"x_min":115,"x_max":360,"ha":475,"o":"m 360 0 l 115 0 l 115 1055 l 360 1055 l 360 0 "},"∂":{"x_min":84,"x_max":898,"ha":988,"o":"m 898 574 q 861 327 898 447 q 761 128 824 207 q 618 15 699 52 q 434 -22 537 -22 q 180 67 276 -22 q 84 299 84 157 q 180 564 84 461 q 420 668 276 668 q 541 647 484 668 q 644 587 598 626 q 644 601 644 593 q 645 624 645 609 q 596 793 645 739 q 443 847 547 847 q 338 828 390 847 q 218 776 285 810 l 199 776 l 199 970 q 346 1014 262 998 q 495 1031 429 1031 q 800 922 703 1031 q 898 574 898 813 m 636 440 q 573 481 605 467 q 502 496 540 496 q 386 446 430 496 q 342 300 342 397 q 375 188 342 227 q 464 150 408 150 q 569 206 529 150 q 625 360 608 263 q 631 396 627 374 q 636 440 634 419 "},"4":{"x_min":57,"x_max":933,"ha":988,"o":"m 933 232 l 795 232 l 795 -3 l 546 -3 l 546 232 l 57 232 l 57 422 l 529 1010 l 795 1010 l 795 416 l 933 416 l 933 232 m 546 416 l 546 782 l 251 416 l 546 416 "},"p":{"x_min":115,"x_max":910,"ha":971,"o":"m 910 391 q 881 219 910 297 q 805 92 852 142 q 695 12 756 39 q 563 -15 633 -15 q 452 -1 498 -15 q 360 37 407 12 l 360 -279 l 115 -279 l 115 762 l 360 762 l 360 682 q 474 755 416 727 q 609 783 533 783 q 831 678 752 783 q 910 391 910 574 m 658 386 q 620 547 658 497 q 500 598 582 598 q 429 587 466 598 q 360 557 393 576 l 360 173 q 412 161 384 164 q 466 159 439 159 q 610 215 563 159 q 658 386 658 272 "},"Ъ":{"x_min":28,"x_max":1198,"ha":1260,"o":"m 929 317 q 923 364 929 342 q 899 405 918 387 q 849 435 881 424 q 761 446 817 446 l 597 446 l 597 189 l 761 189 q 838 199 804 189 q 890 227 872 210 q 919 266 909 243 q 929 317 929 289 m 1198 324 q 1169 188 1198 250 q 1092 86 1141 126 q 964 18 1031 37 q 802 0 897 0 l 337 0 l 337 815 l 28 815 l 28 1010 l 597 1010 l 597 634 l 806 634 q 982 618 915 634 q 1098 562 1048 602 q 1174 459 1150 522 q 1198 324 1198 397 "},"‡":{"x_min":165,"x_max":823,"ha":988,"o":"m 823 346 l 576 349 l 580 92 l 408 92 l 411 349 l 165 346 l 165 502 l 412 498 l 412 654 l 165 651 l 165 807 l 411 803 l 408 1055 l 580 1055 l 576 803 l 823 807 l 823 651 l 575 654 l 575 498 l 823 502 l 823 346 "},"√":{"x_min":91,"x_max":1287,"ha":1205,"o":"m 1287 1247 l 680 -143 l 560 -143 l 253 521 l 91 521 l 91 665 l 427 665 l 657 154 l 1133 1247 l 1287 1247 "},"Ю":{"x_min":129,"x_max":1590,"ha":1660,"o":"m 1247 249 q 1301 357 1283 295 q 1319 505 1319 420 q 1299 658 1319 593 q 1245 762 1279 722 q 1169 821 1212 802 q 1078 840 1126 840 q 987 822 1030 840 q 910 764 945 804 q 856 659 877 726 q 836 504 836 592 q 855 350 836 414 q 909 247 875 287 q 985 188 942 207 q 1078 170 1029 170 q 1171 189 1127 170 q 1247 249 1215 209 m 574 447 l 389 447 l 389 0 l 129 0 l 129 1010 l 389 1010 l 389 641 l 584 641 q 748 927 618 824 q 1080 1031 877 1031 q 1454 889 1318 1031 q 1590 504 1590 748 q 1556 290 1590 388 q 1459 124 1523 193 q 1299 16 1393 54 q 1080 -21 1206 -21 q 724 103 858 -21 q 574 447 590 227 "}}}
